<svg width="92" height="80" viewBox="0 0 92 80" fill="none" xmlns="http://www.w3.org/2000/svg">
<path d="M89.8515 45.7247C89.8515 66.5211 69.9049 71.8472 46.4994 71.8472C23.0938 71.8472 2.31357 65.8264 2.31357 45.03C2.31357 24.2336 23.0938 3.34526 46.4994 3.34526C69.9049 3.34526 89.8515 24.9283 89.8515 45.7247Z" fill="#F4F4F4"/>
<path d="M76.9692 7.30916C75.104 10.0656 70.5576 11.4244 68.7701 10.2209C66.9826 9.01736 67.682 4.94098 68.7701 2.88338C70.8684 -1.03772 74.2103 -0.144793 75.7258 0.864596C77.2413 1.91281 78.8345 4.55275 76.9692 7.30916Z" fill="black"/>
<path d="M14.6011 7.30916C16.4663 10.0656 21.0128 11.4244 22.8003 10.2209C24.5878 9.01736 23.8883 4.94098 22.8003 2.88338C20.7019 -1.03772 17.3601 -0.144793 15.8446 0.864596C14.2903 1.91281 12.7359 4.55275 14.6011 7.30916Z" fill="black"/>
<path d="M53.9649 43.4919C55.053 44.5401 55.053 47.1412 53.9649 48.073C52.838 49.0435 49.9236 50.8682 46.7761 50.8682C43.6285 50.8682 40.2867 49.0823 39.1598 48.073C38.0329 47.1024 38.2272 44.4236 39.4706 43.4919C41.3359 42.0554 44.7943 43.4919 46.7761 43.4919C48.7579 43.4919 52.4494 42.0554 53.9649 43.4919Z" fill="black"/>
<path d="M75.5704 40.3861C85.4793 28.7005 70.2467 11.6961 57.8508 15.1125C55.053 15.889 53.1489 18.4125 52.1774 21.13C42.6571 47.1412 69.4307 47.6459 75.5704 40.3861Z" fill="black"/>
<path d="M16.1166 40.3861C6.20768 28.7005 21.4403 11.6961 33.8362 15.1125C36.634 15.889 38.5381 18.4125 39.5095 21.13C49.0299 47.1412 22.2563 47.6459 16.1166 40.3861Z" fill="black"/>
<path fill-rule="evenodd" clip-rule="evenodd" d="M45.8046 2.68924C21.1682 2.68924 1.23373 22.6053 1.23373 47.2188C1.23373 47.3353 1.35031 47.4518 1.46689 47.4518H2.39949C2.51607 47.4518 2.63265 47.3353 2.63265 47.2188C2.63265 23.3817 21.9454 4.08686 45.8046 4.08686C69.6638 4.08686 88.9765 23.3817 88.9765 47.2188C88.9765 47.3353 89.0931 47.4518 89.2097 47.4518H90.1423C90.2589 47.4518 90.3755 47.3353 90.3755 47.2188C90.3755 22.6053 70.4021 2.68924 45.8046 2.68924Z" fill="black"/>
<path d="M59.7549 36.3873C62.8453 36.3873 65.3505 33.8844 65.3505 30.7969C65.3505 27.7093 62.8453 25.2064 59.7549 25.2064C56.6645 25.2064 54.1592 27.7093 54.1592 30.7969C54.1592 33.8844 56.6645 36.3873 59.7549 36.3873Z" fill="#F4F4F4"/>
<path d="M31.9321 36.3873C35.0225 36.3873 37.5277 33.8844 37.5277 30.7969C37.5277 27.7093 35.0225 25.2064 31.9321 25.2064C28.8417 25.2064 26.3365 27.7093 26.3365 30.7969C26.3365 33.8844 28.8417 36.3873 31.9321 36.3873Z" fill="#F4F4F4"/>
<path d="M58.0451 31.8063C59.8478 31.8063 61.3092 30.2767 61.3092 28.3899C61.3092 26.5031 59.8478 24.9735 58.0451 24.9735C56.2424 24.9735 54.781 26.5031 54.781 28.3899C54.781 30.2767 56.2424 31.8063 58.0451 31.8063Z" fill="black"/>
<path d="M30.4554 31.8063C32.2582 31.8063 33.7196 30.2767 33.7196 28.3899C33.7196 26.5031 32.2582 24.9735 30.4554 24.9735C28.6527 24.9735 27.1913 26.5031 27.1913 28.3899C27.1913 30.2767 28.6527 31.8063 30.4554 31.8063Z" fill="black"/>
<path d="M46.1544 37.4744C49.3019 37.4355 52.7603 37.7461 56.141 38.2508C60.6486 38.9108 65.1562 39.6096 69.7027 40.3084C73.0834 40.8131 76.5029 41.3178 79.8837 41.8225C82.8758 42.2495 85.829 42.7154 88.8211 43.1813C89.2097 43.2589 89.3263 43.3754 89.3652 43.5695C89.5595 44.9283 89.7537 46.2871 89.948 47.6459C90.2589 50.0917 90.6086 52.5376 90.8418 54.9834C91.1138 57.8563 89.6372 60.3797 86.5673 62.6315C83.2644 65.0385 79.7671 67.2902 75.9589 69.4254C71.5679 71.8713 66.9049 74.0453 61.5424 75.6759C57.5399 76.9182 53.3432 77.7723 48.8745 78.0441C45.9212 78.2382 42.9679 78.1605 40.0535 77.8111C33.875 77.0735 28.4737 75.4041 23.3832 73.2689C18.487 71.2113 14.1348 68.7654 10.1324 66.1643C7.95631 64.7279 5.85794 63.2526 3.87615 61.7385C2.39952 60.6127 1.46691 59.2539 1.00061 57.8174C0.417731 56.1092 0.650882 54.3622 0.845176 52.654C1.00061 51.3341 1.1949 50.0141 1.3892 48.7329C1.62235 47.0247 1.89436 45.3165 2.12751 43.6083C2.16637 43.3754 2.28295 43.2589 2.71039 43.1813C5.46935 42.7931 8.22832 42.366 10.9873 41.939C14.3291 41.4343 17.6321 40.9296 20.974 40.4249C24.3158 39.9202 27.6576 39.4543 30.9606 38.9496C33.059 38.639 35.1185 38.3285 37.2169 38.0179C40.0147 37.6297 42.8902 37.4744 46.1544 37.4744Z" fill="#F4F4F4"/>
<path d="M12.9691 55.061C13.3965 55.0998 13.824 55.0998 14.2514 55.1387C15.9612 55.2939 17.7098 55.4492 19.4196 55.6045C21.5568 55.7986 23.6941 55.9928 25.8701 56.1869C27.5411 56.3422 29.2508 56.4975 30.9218 56.6139C33.7584 56.808 36.5951 57.041 39.4318 57.1186C43.0457 57.2351 46.6984 57.2351 50.3122 57.1963C53.4209 57.1574 56.4907 56.9633 59.5606 56.7692C62.1253 56.6139 64.6899 56.381 67.2157 56.148C69.5084 55.9539 71.7622 55.7598 74.0549 55.5269C75.6869 55.3716 77.2801 55.2163 78.9122 55.061C79.2619 55.0222 79.6505 55.0222 80.0391 54.9834C80.0391 55.0222 80.0779 55.061 80.0779 55.0998C78.951 55.4104 77.8241 55.721 76.6584 56.0316C74.56 56.5751 72.4617 57.1186 70.3244 57.5845C68.1095 58.0504 65.8945 58.4774 63.6407 58.8656C62.1641 59.1374 60.6875 59.3315 59.2109 59.5256C58.0062 59.6809 56.8016 59.7974 55.597 59.9138C51.6723 60.2633 47.7087 60.3797 43.7063 60.3021C40.6364 60.2244 37.6055 60.0303 34.6133 59.6033C31.7378 59.215 28.8234 58.8268 25.9867 58.2833C22.606 57.6233 19.303 56.7692 15.9612 55.9539C14.9897 55.721 14.0183 55.4104 13.0468 55.1387C12.9691 55.1387 12.9302 55.0998 12.8914 55.061C12.9691 55.1387 12.9691 55.0998 12.9691 55.061Z" fill="black"/>
<path d="M19.7305 63.8738C21.0905 64.1844 22.4506 64.495 23.8106 64.7667C26.181 65.2326 28.5514 65.7373 30.9218 66.1255C33.2922 66.5137 35.7014 66.8631 38.1495 67.1349C41.9576 67.5231 45.8046 67.7172 49.6516 67.4067C52.3329 67.2126 54.9753 66.9796 57.6177 66.5914C60.4543 66.2032 63.2522 65.6208 66.05 65.1161C67.9929 64.7667 69.8581 64.3009 71.8011 63.9126C71.5291 64.4561 65.506 67.0573 62.2807 68.0278C58.7446 69.1149 55.0919 69.8525 51.206 70.1631C39.1987 71.1725 28.7457 68.9207 19.6528 63.9903C19.7305 63.9514 19.7305 63.9126 19.7305 63.8738Z" fill="black"/>
<path d="M18.3316 48.9271C18.5259 48.8882 18.7202 48.8882 18.9145 48.8494C22.0231 48.6165 25.1707 48.3835 28.2794 48.1118C35.2351 47.5294 42.1908 47.1024 49.1853 47.2965C52.294 47.3741 55.4027 47.5683 58.5114 47.7624C61.3092 47.9177 64.107 48.1506 66.9049 48.3835C68.9644 48.5388 70.985 48.6941 73.0445 48.8882C73.1611 48.8882 73.2388 48.9271 73.3554 48.9659C72.4228 49.0435 71.529 49.1212 70.5964 49.1988C67.7209 49.4317 64.8065 49.6647 61.931 49.8588C59.4829 50.0141 57.0736 50.1694 54.6255 50.3247C50.934 50.5576 47.2424 50.6741 43.512 50.5576C40.3256 50.48 37.1392 50.3247 33.9916 50.1306C30.9995 49.9753 28.0074 49.7035 25.0541 49.5094C22.8392 49.3541 20.6242 49.16 18.3704 49.0047C18.3316 48.9659 18.3316 48.9271 18.3316 48.9271Z" fill="black"/>
<path d="M45.6103 36.465C47.4756 36.465 49.3408 36.5038 51.206 36.6591C53.1489 36.8144 55.0918 37.0473 56.9959 37.3579C58.4337 37.5909 59.8326 37.785 61.2704 38.0179C63.0579 38.2897 64.8065 38.5614 66.594 38.8332C68.4981 39.1438 70.4022 39.4155 72.3451 39.6873C74.1714 39.959 75.9978 40.2696 77.8242 40.5414C79.8059 40.852 81.7489 41.1237 83.7307 41.4343C85.1684 41.6672 86.6062 41.8614 88.044 42.0943C88.5103 42.1719 88.9766 42.2496 89.4429 42.3272C89.5206 42.3272 89.5983 42.4049 89.5983 42.4437C89.8703 43.3366 90.1812 44.1907 90.4144 45.0836C90.5698 45.7048 90.6087 46.3648 90.6864 46.9859C90.7641 47.6848 90.8807 48.3447 90.9584 49.0435C91.075 49.82 91.1527 50.5965 91.2692 51.3729C91.3858 52.227 91.5024 53.0811 91.619 53.9352C91.6578 54.1293 91.6578 54.3623 91.6578 54.5564C91.6578 55.294 91.7355 56.0316 91.6578 56.7693C91.5801 57.5845 91.4635 58.3998 91.075 59.1763C90.8807 59.5645 90.7252 59.9139 90.5309 60.3021C90.5309 60.3409 90.4921 60.3798 90.4532 60.3798C90.2589 60.6127 90.0646 60.8068 89.8703 61.0398C89.0932 62.088 88.1217 62.9809 87.0725 63.7962C82.526 67.2514 77.7076 70.2796 72.5005 72.8807C68.3038 74.9771 63.9128 76.6853 59.2886 77.8888C56.9571 78.4711 54.6255 78.937 52.2552 79.2476C49.3019 79.597 46.3098 79.7135 43.3565 79.597C37.8386 79.3252 32.5538 78.1994 27.4245 76.3747C23.15 74.8994 19.1476 72.9583 15.2617 70.7842C11.9976 68.9208 8.88892 66.902 5.85794 64.7279C4.92533 64.0291 3.99273 63.3303 3.13784 62.5538C2.43838 61.855 1.8555 61.1174 1.27262 60.3409C0.884034 59.8362 0.534306 59.3316 0.378872 58.7492C0.223437 58.2445 0.106861 57.7786 0.029144 57.274C-0.00971466 56.9246 -0.00971466 56.5751 0.029144 56.2257C0.106861 54.5952 0.223437 52.9258 0.456589 51.2953C0.612024 50.2859 0.7286 49.2765 0.884034 48.2671C1.00061 47.413 1.11719 46.5201 1.27262 45.666C1.42806 44.8119 1.58349 43.9966 1.73892 43.1425C1.77778 42.9096 1.93322 42.7154 2.04979 42.4825C2.08865 42.4437 2.12751 42.4049 2.20523 42.4049C3.29327 42.2108 4.34245 42.0555 5.4305 41.8614C6.86827 41.6284 8.30604 41.4343 9.74381 41.2402C11.337 41.0072 12.8914 40.7743 14.4846 40.5026C16.1166 40.2696 17.7487 39.9979 19.3419 39.7649C20.974 39.532 22.606 39.2602 24.2381 39.0273C25.6758 38.7944 27.0748 38.6002 28.5125 38.3673C30.0669 38.1344 31.6212 37.9014 33.1756 37.6685C34.3025 37.5132 35.4294 37.3191 36.5563 37.1638C37.9552 36.9697 39.3541 36.8144 40.753 36.7368C42.3851 36.6203 44.0171 36.5815 45.6492 36.5038C45.6103 36.4262 45.6103 36.465 45.6103 36.465ZM45.8046 78.1217C47.0092 78.0441 48.2139 78.0053 49.4185 77.9276C51.478 77.7723 53.4986 77.4618 55.4804 77.0735C58.7057 76.4135 61.8144 75.4041 64.8065 74.2395C68.8478 72.6477 72.656 70.6678 76.3087 68.4161C77.5521 67.6784 78.7179 66.8632 79.9614 66.1255C82.8369 64.4173 85.4405 62.4762 87.8108 60.2633C88.4326 59.681 88.86 59.021 89.0932 58.2833C89.404 57.3904 89.4429 56.4587 89.4429 55.5269C89.4429 54.0517 89.2486 52.5376 89.132 51.0623C88.9766 49.5871 88.8212 48.073 88.6657 46.5977C88.588 46.0154 88.5103 45.433 88.316 44.8895C88.044 44.1907 87.5388 43.686 86.7616 43.4531C86.6062 43.4143 86.4508 43.3366 86.2565 43.3366C85.013 43.1813 83.8084 43.026 82.5649 42.8707C81.2049 42.7154 79.8448 42.5602 78.4848 42.366C76.9304 42.1331 75.4149 41.9002 73.8606 41.6672C71.4902 41.3178 69.1198 40.9296 66.7883 40.5802C63.9128 40.1532 61.0372 39.6873 58.1617 39.2602C55.9856 38.9108 53.8095 38.5614 51.6334 38.3673C49.9236 38.212 48.2139 38.0955 46.5041 38.0955C44.9497 38.0955 43.3954 38.1344 41.841 38.212C40.5587 38.2897 39.3152 38.4061 38.0329 38.5614C36.5563 38.7555 35.0796 38.9885 33.6419 39.2214C32.243 39.4155 30.8052 39.6485 29.4063 39.8814C27.7742 40.1143 26.1033 40.3861 24.4712 40.619C22.878 40.852 21.246 41.1237 19.6528 41.3567C18.0596 41.5896 16.4275 41.8614 14.8343 42.0943C13.2022 42.366 11.5702 42.599 9.9381 42.8319C8.96663 42.9872 7.99517 43.1037 7.0237 43.259C6.40196 43.3366 5.78022 43.4143 5.15848 43.5307C4.14816 43.7248 3.4487 44.2295 3.17669 45.1613C3.09898 45.3554 3.06012 45.5495 3.02126 45.7824C2.86583 46.8695 2.74925 47.9565 2.63267 49.0824C2.5161 50.3247 2.39952 51.6058 2.24409 52.8482C2.12751 53.974 2.04979 55.0999 2.08865 56.2257C2.08865 56.8469 2.16637 57.4681 2.3218 58.0892C2.55496 59.0986 3.13784 59.9139 3.95387 60.6515C6.51854 62.9809 9.31636 65.0773 12.4639 66.8243C12.9691 67.0961 13.5131 67.329 13.9794 67.6396C17.0104 69.5419 20.1579 71.2889 23.4609 72.803C28.5902 75.1324 33.9527 76.8794 39.6261 77.6559C41.6856 77.9664 43.7451 78.0829 45.8046 78.1217Z" fill="black"/>
</svg>
