<?xml version="1.0" encoding="UTF-8" standalone="no"?>
<svg
   xmlns:dc="http://purl.org/dc/elements/1.1/"
   xmlns:cc="http://creativecommons.org/ns#"
   xmlns:rdf="http://www.w3.org/1999/02/22-rdf-syntax-ns#"
   xmlns:svg="http://www.w3.org/2000/svg"
   xmlns="http://www.w3.org/2000/svg"
   xmlns:sodipodi="http://sodipodi.sourceforge.net/DTD/sodipodi-0.dtd"
   xmlns:inkscape="http://www.inkscape.org/namespaces/inkscape"
   version="1.0"
   width="100%"
   height="100%"
   viewBox="0 0 7917.000000 4500.000000"
   preserveAspectRatio="xMidYMid meet"
   id="svg142"
   sodipodi:docname="introScreenTemp.svg"
   inkscape:version="1.0.2-2 (e86c870879, 2021-01-15)">
  <metadata
     id="metadata148">
    <rdf:RDF>
      <cc:Work
         rdf:about="">
        <dc:format>image/svg+xml</dc:format>
        <dc:type
           rdf:resource="http://purl.org/dc/dcmitype/StillImage" />
      </cc:Work>
    </rdf:RDF>
  </metadata>
  <defs
     id="defs146" />
  <sodipodi:namedview
     pagecolor="#ffffff"
     bordercolor="#666666"
     borderopacity="1"
     objecttolerance="10"
     gridtolerance="10"
     guidetolerance="10"
     inkscape:pageopacity="0"
     inkscape:pageshadow="2"
     inkscape:window-width="2560"
     inkscape:window-height="1361"
     id="namedview144"
     showgrid="false"
     inkscape:zoom="1.9177383"
     inkscape:cx="4722.0587"
     inkscape:cy="3990.8128"
     inkscape:window-x="2391"
     inkscape:window-y="-9"
     inkscape:window-maximized="1"
     inkscape:current-layer="svg142"
     inkscape:document-rotation="0" />
  <g
     transform="translate(0.000000,4500.000000) scale(0.100000,-0.100000)"
     fill="#000000"
     stroke="none"
     id="g140">
    <path
       d="M23254 41854 c-385 -64 -724 -313 -902 -662 -55 -107 -103 -247 -123 -362 -12 -62 -14 -687 -14 -3690 0 -3505 1 -3618 19 -3705 52 -247 166 -466 334 -638 193 -198 466 -333 742 -367 119 -14 32391 -14 32510 0 193 24 394 100 557 212 105 71 256 224 326 329 96 146 161 306 195 484 16 84 17 337 17 3690 0 3414 -1 3605 -18 3695 -100 531 -514 937 -1037 1016 -139 21 -32481 19 -32606 -2z m32515 -194 c292 -30 556 -178 732 -409 68 -90 143 -246 177 -366 l27 -100 0 -3640 0 -3640 -27 -99 c-101 -366 -375 -641 -743 -748 l-80 -23 -16245 -3 c-12220 -2 -16263 0 -16319 9 -371 57 -694 331 -817 692 -57 168 -54 -70 -54 3812 0 3886 -3 3644 54 3814 130 380 476 658 871 700 122 13 32300 13 32424 1z"
       id="path2" />
    <path
       d="M37293 39849 c-49 -14 -83 -62 -83 -116 0 -55 24 -98 66 -118 75 -35 159 -6 188 66 29 73 -8 147 -85 169 -39 11 -43 11 -86 -1z"
       id="path4" />
    <path
       d="M38523 39849 c-39 -11 -80 -59 -88 -103 -9 -45 16 -101 57 -126 50 -32 129 -24 170 17 57 57 46 163 -20 197 -40 20 -83 26 -119 15z"
       id="path6" />
    <path
       d="M35160 39280 l0 -530 125 0 125 0 0 220 0 220 215 0 215 0 0 -220 0 -220 125 0 125 0 0 530 0 530 -125 0 -125 0 0 -210 0 -210 -215 0 -215 0 0 210 0 210 -125 0 -125 0 0 -530z"
       id="path8" />
    <path
       d="M36515 39503 c-132 -47 -210 -125 -246 -245 -30 -99 -24 -228 16 -316 35 -78 112 -151 193 -184 50 -20 74 -23 187 -22 155 0 214 18 294 90 45 41 101 129 101 161 0 10 -27 13 -117 13 l-118 0 -15 -32 c-19 -41 -55 -67 -109 -79 -87 -19 -177 33 -200 116 -22 81 -46 75 279 75 l290 0 0 64 c0 158 -75 278 -217 343 -51 24 -73 28 -173 30 -91 3 -126 0 -165 -14z m243 -160 c30 -23 57 -65 67 -105 l7 -28 -167 0 -167 0 6 33 c8 41 33 75 77 105 28 20 44 23 92 20 37 -3 67 -11 85 -25z"
       id="path10" />
    <path
       d="M39064 39500 c-205 -81 -288 -371 -171 -593 58 -111 152 -168 287 -175 105 -5 181 20 247 81 l43 40 0 -52 0 -51 120 0 120 0 0 375 0 375 -120 0 -120 0 0 -45 0 -44 -27 26 c-16 14 -53 38 -83 52 -76 36 -220 41 -296 11z m307 -173 c110 -59 137 -268 46 -365 -71 -76 -194 -78 -268 -3 -97 97 -73 311 41 369 59 29 124 29 181 -1z"
       id="path12" />
    <path
       d="M41215 39507 c-58 -19 -86 -35 -123 -71 -61 -56 -80 -120 -61 -206 22 -102 101 -150 308 -185 107 -18 147 -36 162 -69 25 -54 -34 -100 -125 -100 -80 0 -124 24 -151 82 l-19 42 -109 0 -109 0 7 -32 c21 -99 82 -169 181 -209 52 -21 76 -23 199 -24 114 0 149 4 190 19 110 42 166 104 173 191 6 78 -4 116 -43 163 -49 56 -121 88 -261 113 -136 24 -182 42 -190 74 -13 54 31 85 119 85 63 0 108 -25 127 -69 l12 -31 110 0 110 0 -6 25 c-20 81 -81 151 -159 186 -43 19 -73 23 -177 26 -84 2 -138 -1 -165 -10z"
       id="path14" />
    <path
       d="M42105 39500 c-115 -38 -208 -133 -241 -248 -25 -87 -16 -229 21 -310 35 -78 112 -151 193 -184 50 -20 74 -23 187 -22 155 0 214 18 294 90 44 40 101 132 101 163 0 7 -41 11 -118 11 l-118 0 -17 -35 c-19 -40 -52 -64 -107 -76 -89 -20 -175 31 -199 118 -22 79 -46 73 280 73 l292 0 -5 83 c-8 147 -85 265 -212 323 -54 25 -75 29 -176 31 -93 2 -126 -1 -175 -17z m253 -157 c30 -23 57 -65 67 -105 l7 -28 -170 0 -171 0 9 30 c26 89 84 133 173 127 38 -2 67 -10 85 -24z"
       id="path16" />
    <path
       d="M43153 39499 c-24 -12 -54 -34 -68 -51 l-25 -30 0 41 0 41 -120 0 -120 0 0 -375 0 -375 119 0 120 0 3 258 c3 218 6 262 20 288 34 61 125 74 180 25 l33 -29 3 -271 3 -271 110 0 109 0 1 223 c0 122 4 244 8 271 15 88 90 129 176 96 49 -19 55 -54 55 -335 l0 -255 121 0 120 0 -3 303 c-3 287 -4 304 -25 342 -46 86 -118 124 -234 125 -97 0 -158 -21 -213 -74 l-43 -42 -23 32 c-53 78 -211 111 -307 63z"
       id="path18" />
    <path
       d="M37220 39100 c0 -387 -1 -401 -20 -420 -11 -11 -33 -20 -50 -20 l-31 0 3 -82 3 -83 89 2 c115 3 167 27 211 98 l30 48 3 429 3 428 -121 0 -120 0 0 -400z"
       id="path20" />
    <path
       d="M38448 39101 c-3 -376 -4 -400 -22 -420 -11 -12 -31 -21 -48 -21 l-28 0 0 -86 0 -87 86 7 c100 7 158 30 197 75 53 64 57 98 57 533 l0 398 -120 0 -119 0 -3 -399z"
       id="path22" />
    <path
       d="M39882 39418 l3 -83 147 -5 147 -5 -160 -270 c-89 -148 -165 -278 -170 -287 -9 -17 9 -18 326 -18 l335 0 0 90 0 90 -155 0 c-85 0 -155 2 -155 4 0 2 74 130 164 285 l165 281 -325 0 -325 0 3 -82z"
       id="path24" />
    <path
       d="M37693 38986 c-86 -39 -84 -196 2 -232 19 -8 44 -14 55 -14 25 0 26 -20 1 -68 -19 -37 -65 -72 -95 -72 -13 0 -16 -11 -16 -55 l0 -54 33 6 c49 9 118 47 154 85 54 56 77 121 78 218 0 93 -16 135 -66 173 -34 25 -105 31 -146 13z"
       id="path26" />
    <path
       d="M36339 37667 c-138 -93 -16 -290 135 -218 71 35 96 113 56 178 -39 64 -128 83 -191 40z"
       id="path28" />
    <path
       d="M41033 37670 c-50 -30 -66 -62 -61 -120 6 -59 33 -93 85 -111 69 -23 150 17 173 85 37 112 -94 209 -197 146z"
       id="path30" />
    <path
       d="M44843 37674 c-81 -40 -93 -149 -22 -208 88 -75 219 -15 219 99 0 94 -107 153 -197 109z"
       id="path32" />
    <path
       d="M45733 37675 c-83 -36 -96 -163 -22 -216 90 -64 219 -5 219 101 0 96 -103 156 -197 115z"
       id="path34" />
    <path
       d="M32970 37443 l0 -197 -27 27 c-16 14 -55 38 -88 54 -51 23 -73 27 -151 27 -82 1 -96 -2 -156 -32 -112 -55 -176 -147 -199 -289 -24 -145 25 -300 122 -387 126 -113 351 -112 466 3 l32 32 3 -48 3 -48 118 -3 117 -3 0 531 0 530 -120 0 -120 0 0 -197z m-113 -274 c75 -28 117 -103 117 -209 0 -142 -69 -220 -196 -220 -67 0 -122 31 -156 90 -24 39 -27 56 -27 130 0 72 4 92 25 130 33 58 87 90 157 90 28 0 64 -5 80 -11z"
       id="path36" />
    <path
       d="M34830 37110 l0 -530 121 0 121 0 -4 424 c-1 233 -1 422 1 420 4 -4 226 -687 257 -792 l16 -53 115 3 116 3 132 410 c72 226 134 417 138 425 4 8 5 -177 1 -412 l-5 -428 125 0 126 0 0 530 0 530 -189 0 -189 0 -60 -187 c-33 -104 -89 -277 -124 -385 -35 -109 -65 -198 -68 -198 -3 0 -60 172 -126 383 l-121 382 -191 3 -192 2 0 -530z"
       id="path38" />
    <path
       d="M45210 37198 c1 -391 3 -449 18 -492 30 -88 107 -126 253 -126 l59 0 0 90 0 90 -29 0 c-61 0 -61 1 -61 462 l0 418 -120 0 -120 0 0 -442z"
       id="path40" />
    <path
       d="M47050 37110 l0 -530 120 0 120 0 0 51 0 51 41 -37 c69 -62 119 -79 229 -80 82 0 103 4 151 27 75 34 134 95 172 176 30 64 32 73 32 187 0 156 -21 213 -109 301 -78 77 -135 99 -256 98 -91 -1 -152 -20 -217 -70 l-33 -25 0 190 0 191 -125 0 -125 0 0 -530z m507 59 c74 -28 113 -99 113 -209 0 -138 -59 -211 -175 -218 -129 -8 -205 72 -205 218 0 97 37 171 102 203 38 19 123 22 165 6z"
       id="path42" />
    <path
       d="M48060 37634 c0 -3 41 -50 92 -105 l92 -99 137 0 137 0 91 97 c50 54 91 101 91 105 0 5 -44 8 -99 8 -76 0 -101 -3 -111 -15 -7 -9 -35 -34 -62 -57 l-49 -40 -59 56 -59 56 -100 0 c-56 0 -101 -3 -101 -6z"
       id="path44" />
    <path
       d="M38600 37436 l0 -95 -57 -3 -58 -3 -3 -77 -3 -78 61 0 60 0 0 -198 c0 -227 10 -278 62 -329 52 -50 100 -66 221 -71 l107 -5 0 90 0 91 -55 4 c-94 8 -95 10 -95 230 l0 188 75 0 75 0 0 80 0 80 -75 0 -74 0 -3 93 -3 92 -117 3 -118 3 0 -95z"
       id="path46" />
    <path
       d="M29817 37350 c-52 -13 -110 -44 -152 -81 l-35 -31 0 51 0 52 -117 -3 -118 -3 -3 -502 -2 -503 125 0 125 0 0 165 0 165 48 -35 c65 -46 156 -69 244 -62 203 17 328 168 328 395 0 189 -77 319 -222 374 -61 23 -167 31 -221 18z m104 -193 c123 -83 127 -301 7 -390 -18 -14 -49 -22 -87 -25 -82 -6 -141 22 -179 86 -24 41 -27 57 -27 132 0 75 3 91 28 132 36 62 83 87 163 88 47 0 69 -5 95 -23z"
       id="path48" />
    <path
       d="M30652 37350 c-60 -13 -137 -57 -179 -103 -143 -159 -129 -460 28 -601 125 -113 333 -113 457 -1 l41 36 3 -48 3 -48 118 -3 117 -3 0 381 0 381 -117 -3 -118 -3 -5 -43 -5 -44 -23 25 c-57 61 -215 99 -320 77z m235 -181 c75 -28 117 -103 117 -209 0 -142 -69 -220 -196 -220 -115 0 -183 82 -183 220 0 139 67 219 182 220 28 0 64 -5 80 -11z"
       id="path50" />
    <path
       d="M31839 37347 c-57 -16 -133 -60 -153 -89 -14 -20 -15 -18 -18 28 l-3 49 -117 3 -118 3 0 -381 0 -381 123 3 122 3 5 250 c3 162 9 257 17 270 39 67 125 94 196 60 63 -30 67 -51 67 -334 l0 -252 123 3 122 3 0 280 c0 270 -1 282 -23 331 -27 61 -82 117 -135 139 -53 22 -152 28 -208 12z"
       id="path52" />
    <path
       d="M33642 37350 c-60 -13 -137 -57 -179 -103 -143 -159 -129 -460 28 -601 126 -113 333 -113 458 -1 l41 37 0 -51 0 -51 120 0 120 0 0 380 0 381 -117 -3 -118 -3 -5 -43 -5 -44 -23 25 c-57 61 -215 99 -320 77z m235 -181 c75 -28 117 -104 117 -209 -1 -143 -70 -220 -196 -220 -117 0 -183 81 -183 225 0 69 4 86 28 128 17 28 42 55 65 67 41 21 124 26 169 9z"
       id="path54" />
    <path
       d="M36952 37344 c-29 -7 -66 -21 -83 -29 -51 -27 -109 -94 -142 -163 -26 -56 -31 -80 -35 -168 -6 -125 17 -211 77 -290 117 -156 363 -177 514 -44 l37 32 0 -51 0 -52 118 3 117 3 0 375 0 375 -117 3 -118 3 0 -45 0 -45 -57 39 c-95 65 -203 84 -311 54z m272 -188 c24 -14 52 -42 66 -68 21 -36 25 -56 25 -128 0 -75 -3 -91 -27 -132 -57 -96 -205 -120 -287 -45 -76 70 -84 261 -13 341 55 62 161 76 236 32z"
       id="path56" />
    <path
       d="M40290 37349 c-69 -12 -163 -56 -216 -102 -88 -77 -137 -226 -114 -354 14 -82 60 -171 111 -218 88 -79 220 -120 359 -112 184 11 325 103 382 246 31 80 31 223 -1 303 -70 178 -284 276 -521 237z m200 -189 c108 -55 135 -257 47 -357 -17 -20 -46 -42 -64 -49 -45 -19 -121 -17 -162 4 -140 71 -147 322 -11 401 47 28 137 28 190 1z"
       id="path58" />
    <path
       d="M41653 37350 c-188 -40 -301 -231 -272 -462 17 -137 89 -242 202 -294 54 -25 74 -29 152 -29 105 0 171 24 226 81 l34 35 5 -48 5 -48 118 -3 117 -3 0 381 0 381 -117 -3 -118 -3 -5 -43 -5 -44 -23 25 c-57 61 -215 99 -319 77z m240 -181 c157 -80 152 -359 -6 -418 -39 -15 -111 -14 -150 3 -140 58 -155 322 -24 401 46 27 140 35 180 14z"
       id="path60" />
    <path
       d="M43227 37350 c-55 -14 -97 -38 -139 -78 l-38 -36 0 52 0 53 -117 -3 -118 -3 -3 -377 -2 -378 124 0 125 0 3 248 c3 274 7 294 71 332 60 37 159 19 189 -33 9 -16 14 -97 18 -282 l5 -260 123 -3 122 -3 0 269 c0 296 -6 336 -59 409 -55 76 -198 119 -304 93z"
       id="path62" />
    <path
       d="M44007 37349 c-189 -44 -303 -243 -269 -465 16 -103 51 -172 118 -233 129 -118 336 -121 463 -6 l41 37 0 -51 0 -51 120 0 120 0 0 380 0 381 -117 -3 -118 -3 -3 -43 -3 -43 -31 26 c-83 70 -211 100 -321 74z m246 -183 c70 -29 110 -104 110 -206 0 -132 -64 -211 -178 -218 -48 -3 -70 0 -103 17 -134 68 -135 332 -2 402 42 23 127 25 173 5z"
       id="path64" />
    <path
       d="M48261 37345 c-86 -19 -149 -59 -185 -118 -25 -41 -30 -58 -29 -111 1 -69 11 -96 56 -144 39 -41 104 -65 248 -92 62 -12 125 -28 141 -36 36 -18 46 -56 24 -90 -24 -35 -60 -46 -138 -42 -75 4 -109 26 -134 86 l-14 32 -110 0 -109 0 6 -32 c26 -139 144 -222 334 -235 248 -17 409 79 409 243 0 143 -85 210 -311 249 -124 21 -157 32 -175 60 -35 54 15 99 108 98 69 -1 104 -20 128 -71 l15 -32 109 0 109 0 -7 32 c-9 46 -52 114 -90 143 -81 62 -258 89 -385 60z"
       id="path66" />
    <path
       d="M49143 37350 c-188 -40 -301 -231 -272 -463 17 -138 89 -240 208 -296 48 -22 69 -26 146 -26 105 0 171 24 226 81 l34 35 5 -48 5 -48 118 -3 117 -3 0 381 0 381 -117 -3 -118 -3 -5 -43 -5 -44 -23 25 c-57 61 -215 99 -319 77z m240 -181 c157 -80 152 -359 -6 -418 -39 -15 -111 -14 -150 3 -84 35 -130 144 -109 260 21 110 82 165 185 166 32 0 68 -5 80 -11z"
       id="path68" />
    <path
       d="M36297 37334 c-4 -4 -7 -175 -7 -381 l0 -374 123 3 122 3 0 375 0 375 -116 3 c-63 1 -118 -1 -122 -4z"
       id="path70" />
    <path
       d="M39060 37333 c0 -3 59 -174 132 -380 l131 -373 161 0 161 0 127 363 c70 199 128 369 130 377 3 13 -15 15 -111 15 l-115 0 -87 -274 c-49 -150 -90 -276 -93 -278 -3 -3 -44 116 -92 263 -47 148 -91 275 -97 282 -10 13 -247 18 -247 5z"
       id="path72" />
    <path
       d="M40987 37334 c-4 -4 -7 -186 -7 -405 l0 -398 -26 -20 c-15 -12 -37 -21 -50 -21 -23 0 -24 -2 -24 -81 l0 -81 98 4 c83 3 104 7 142 30 100 58 112 128 108 628 l-3 345 -116 3 c-63 1 -118 -1 -122 -4z"
       id="path74" />
    <path
       d="M44788 36934 l-3 -406 -24 -19 c-13 -10 -34 -19 -47 -19 -23 0 -24 -2 -24 -80 l0 -80 78 0 c102 0 149 14 193 59 66 66 69 90 69 548 l0 403 -120 0 -119 0 -3 -406z"
       id="path76" />
    <path
       d="M45677 37334 c-4 -4 -7 -187 -7 -406 0 -385 -1 -399 -20 -418 -11 -11 -31 -20 -45 -20 -25 0 -25 -1 -25 -81 l0 -81 93 4 c109 4 157 24 199 84 16 21 33 64 38 94 6 33 9 211 8 440 l-3 385 -116 3 c-63 1 -118 -1 -122 -4z"
       id="path78" />
    <path
       d="M46102 37038 c3 -290 4 -305 25 -344 49 -92 150 -141 270 -131 74 6 160 44 197 88 14 16 27 29 30 29 3 0 6 -23 6 -50 l0 -51 118 3 117 3 0 375 0 375 -120 0 -120 0 -5 -240 c-5 -227 -6 -242 -28 -276 -38 -63 -127 -88 -191 -54 -54 27 -61 68 -61 335 l0 240 -121 0 -120 0 3 -302z"
       id="path80" />
    <path
       d="M37774 36811 c-40 -24 -58 -69 -51 -127 6 -57 37 -91 95 -106 41 -10 44 -13 38 -39 -9 -47 -35 -76 -82 -96 -43 -18 -44 -19 -44 -65 0 -46 1 -48 28 -48 39 1 111 36 150 73 57 54 85 121 90 214 4 70 1 88 -18 128 -13 26 -37 55 -54 66 -40 25 -111 25 -152 0z"
       id="path82" />
    <path
       d="M39841 35494 c-93 -78 -37 -224 86 -224 82 0 133 48 133 125 0 79 -51 125 -139 125 -39 0 -56 -6 -80 -26z"
       id="path84" />
    <path
       d="M32850 35464 c0 -3 41 -50 92 -105 l91 -99 137 0 136 0 92 103 93 102 -102 3 -101 3 -60 -57 -59 -56 -59 56 -59 56 -100 0 c-56 0 -101 -3 -101 -6z"
       id="path86" />
    <path
       d="M44130 34945 l0 -525 125 0 125 0 2 174 3 173 125 -173 125 -173 143 -1 143 0 -83 108 c-45 59 -115 149 -155 201 -40 52 -73 97 -73 100 0 3 61 79 135 169 74 89 135 164 135 167 0 3 -60 5 -134 5 l-133 0 -114 -150 -114 -150 -3 300 -2 300 -125 0 -125 0 0 -525z"
       id="path88" />
    <path
       d="M46010 35321 c0 -124 24 -403 46 -538 l5 -33 69 0 69 0 6 43 c30 221 45 398 45 526 l0 151 -120 0 -120 0 0 -149z"
       id="path90" />
    <path
       d="M41130 35265 l0 -95 -55 0 -55 0 0 -80 0 -80 55 0 55 0 0 -179 c0 -98 5 -202 10 -232 15 -76 51 -126 113 -155 45 -21 67 -24 165 -24 l113 0 -3 88 -3 87 -63 5 c-92 7 -92 7 -92 227 l0 183 80 0 80 0 0 80 0 80 -80 0 -80 0 0 95 0 95 -120 0 -120 0 0 -95z"
       id="path92" />
    <path
       d="M43590 35265 l0 -95 -55 0 -55 0 0 -80 0 -80 54 0 54 0 4 -207 c6 -266 22 -312 122 -359 44 -21 66 -24 164 -24 l112 0 0 90 0 90 -58 0 c-98 0 -96 -3 -100 219 l-3 191 80 0 81 0 0 80 0 80 -80 0 -80 0 0 95 0 95 -120 0 -120 0 0 -95z"
       id="path94" />
    <path
       d="M33882 35175 c-74 -21 -108 -41 -168 -97 -32 -30 -62 -72 -80 -111 -27 -57 -29 -71 -29 -177 0 -98 4 -122 23 -165 72 -158 191 -229 387 -229 172 0 296 62 362 179 52 95 52 95 -80 95 l-114 0 -24 -37 c-33 -51 -69 -74 -122 -80 -60 -7 -110 11 -146 52 -27 31 -51 88 -51 123 0 9 65 12 291 12 l291 0 -4 88 c-3 68 -10 101 -33 150 -36 79 -112 152 -193 183 -74 28 -233 36 -310 14z m208 -157 c33 -17 51 -35 68 -68 41 -82 44 -80 -143 -80 -164 0 -165 0 -165 23 0 12 10 40 23 62 25 45 92 85 142 85 17 0 51 -10 75 -22z"
       id="path96" />
    <path
       d="M34975 35177 c-59 -20 -86 -35 -127 -75 l-38 -36 0 52 0 52 -120 0 -120 0 0 -505 0 -505 125 0 125 0 0 166 0 165 33 -24 c82 -62 184 -86 287 -67 188 34 299 181 300 395 0 231 -135 384 -345 392 -48 2 -96 -3 -120 -10z m77 -167 c89 -25 137 -101 138 -216 0 -144 -80 -231 -203 -221 -114 10 -177 90 -177 221 1 112 42 181 127 211 47 17 67 18 115 5z"
       id="path98" />
    <path
       d="M35990 35181 c-47 -15 -95 -43 -127 -74 l-33 -31 0 47 0 47 -120 0 -120 0 0 -375 0 -375 119 0 119 0 4 238 c3 264 10 295 72 333 38 23 115 25 155 4 54 -27 61 -68 61 -335 l0 -240 121 0 120 0 -3 293 c-3 277 -4 294 -24 332 -51 95 -123 137 -239 141 -44 2 -91 0 -105 -5z"
       id="path100" />
    <path
       d="M36743 35170 c-62 -22 -99 -47 -142 -95 -66 -76 -92 -156 -92 -283 0 -154 57 -276 159 -340 66 -42 116 -55 202 -56 87 0 171 32 228 87 l32 31 0 -47 0 -47 120 0 120 0 0 375 0 376 -117 -3 -118 -3 -3 -36 -3 -37 -50 34 c-96 64 -231 82 -336 44z m308 -185 c94 -62 117 -230 46 -336 -28 -42 -98 -79 -152 -79 -53 0 -124 36 -152 78 -28 43 -46 131 -38 185 14 91 63 155 133 178 44 14 121 2 163 -26z"
       id="path102" />
    <path
       d="M38156 35174 c-110 -35 -191 -119 -227 -237 -18 -57 -21 -86 -17 -170 6 -125 35 -200 106 -270 69 -67 146 -99 241 -100 100 -1 166 22 231 80 l50 45 0 -51 0 -51 120 0 120 0 0 375 0 375 -120 0 -120 0 0 -45 0 -46 -37 30 c-91 73 -238 100 -347 65z m249 -165 c50 -14 107 -72 123 -126 26 -86 7 -199 -41 -252 -80 -87 -230 -77 -294 20 -23 34 -28 56 -32 116 -4 93 13 156 54 197 50 50 115 66 190 45z"
       id="path104" />
    <path
       d="M39142 35174 c-29 -7 -65 -20 -80 -28 -126 -66 -163 -240 -70 -336 43 -44 94 -65 203 -85 192 -36 228 -53 223 -108 -9 -94 -211 -104 -268 -13 -11 19 -20 41 -20 50 0 14 -15 16 -111 16 l-112 0 7 -42 c15 -96 99 -181 215 -215 86 -26 247 -23 341 6 160 49 231 186 165 318 -42 83 -113 121 -280 149 -157 26 -195 45 -195 95 0 38 37 61 103 66 65 5 116 -19 137 -64 l15 -33 111 0 111 0 -5 25 c-9 49 -66 129 -112 157 -91 55 -259 74 -378 42z"
       id="path106" />
    <path
       d="M40427 35179 c-152 -36 -234 -148 -206 -281 22 -103 99 -149 308 -186 122 -22 157 -39 167 -77 15 -59 -60 -102 -159 -92 -60 5 -96 31 -122 85 l-19 42 -103 0 c-56 0 -104 -4 -107 -9 -3 -5 1 -32 10 -61 21 -72 88 -143 161 -170 169 -63 413 -38 512 53 37 35 61 95 61 160 0 139 -86 207 -312 246 -167 28 -212 58 -173 117 22 34 60 47 122 41 61 -6 97 -27 113 -67 l12 -30 109 0 c122 0 120 -1 88 70 -38 84 -109 136 -217 159 -61 13 -190 13 -245 0z"
       id="path108" />
    <path
       d="M41903 35175 c-117 -32 -198 -97 -249 -201 -27 -56 -29 -66 -29 -184 1 -114 3 -130 27 -183 72 -155 250 -236 455 -207 142 19 254 94 303 203 31 68 33 67 -93 67 l-114 0 -24 -37 c-36 -54 -71 -76 -131 -80 -98 -8 -168 50 -185 151 l-6 36 293 0 293 0 -5 83 c-7 113 -37 187 -102 252 -53 53 -116 88 -188 105 -61 14 -184 11 -245 -5z m203 -154 c45 -20 81 -69 86 -116 l3 -30 -159 -3 c-88 -1 -163 1 -167 5 -11 12 16 81 43 110 49 54 123 66 194 34z"
       id="path110" />
    <path
       d="M42964 35170 c-28 -11 -69 -36 -92 -56 l-42 -36 0 46 0 46 -120 0 -120 0 0 -375 0 -375 125 0 125 0 0 238 c0 211 3 242 19 279 12 25 32 48 50 57 39 20 113 20 152 0 54 -27 59 -57 59 -329 l0 -245 126 0 126 0 -4 278 c-5 299 -9 328 -64 399 -62 81 -228 117 -340 73z"
       id="path112" />
    <path
       d="M45204 35181 c-103 -26 -195 -108 -236 -209 -19 -49 -23 -75 -23 -182 0 -120 1 -128 32 -192 54 -115 138 -179 263 -199 104 -16 229 20 289 85 34 36 41 33 41 -19 l0 -45 120 0 120 0 -2 373 -3 372 -117 3 -118 3 0 -46 0 -46 -37 30 c-64 51 -129 74 -218 77 -44 2 -94 -1 -111 -5z m277 -196 c96 -63 118 -244 42 -344 -50 -65 -149 -88 -228 -52 -75 34 -108 97 -108 207 0 111 46 187 131 215 44 14 121 2 163 -26z"
       id="path114" />
    <path
       d="M32850 35085 l0 -84 149 -3 150 -3 -155 -260 c-85 -143 -162 -272 -170 -287 l-15 -28 336 0 335 0 0 90 0 90 -155 0 c-85 0 -155 2 -155 4 0 2 70 123 156 270 85 147 158 274 161 282 4 12 -41 14 -316 14 l-321 0 0 -85z"
       id="path116" />
    <path
       d="M39807 35163 c-4 -3 -7 -172 -7 -375 l0 -368 125 0 125 0 0 375 0 375 -118 0 c-65 0 -122 -3 -125 -7z"
       id="path118" />
    <path
       d="M46032 34626 c-35 -32 -37 -38 -37 -95 0 -53 4 -63 30 -91 105 -110 280 -8 233 136 -18 54 -66 84 -135 84 -47 0 -58 -4 -91 -34z"
       id="path120" />
    <path
       d="M32296 27354 c-183 -34 -430 -140 -566 -243 -90 -67 -216 -201 -280 -296 -73 -108 -144 -261 -176 -380 -25 -92 -28 -115 -28 -280 0 -164 3 -189 27 -279 34 -125 125 -314 207 -428 288 -403 831 -725 1373 -817 54 -9 96 -21 95 -26 -2 -6 -79 -65 -173 -134 -1383 -1006 -2515 -2284 -3344 -3771 -906 -1626 -1411 -3491 -1448 -5346 l-6 -311 24 -16 c35 -25 278 -25 307 1 19 16 21 36 31 357 12 373 21 516 52 825 197 1996 949 3938 2147 5550 355 478 655 825 1096 1265 305 305 470 457 742 684 1754 1465 3898 2356 6169 2565 377 35 530 41 1040 41 510 0 662 -6 1040 -41 2270 -208 4415 -1100 6169 -2565 496 -414 1031 -950 1451 -1454 981 -1177 1730 -2591 2153 -4065 273 -948 408 -1846 438 -2908 6 -231 8 -244 28 -257 32 -23 273 -21 305 2 l24 16 -6 316 c-28 1423 -337 2877 -892 4196 -335 797 -765 1566 -1266 2267 -742 1038 -1734 2024 -2741 2728 -43 29 -78 57 -78 61 0 3 28 10 62 13 89 10 306 67 423 111 325 122 594 291 815 514 211 212 339 439 390 691 18 88 21 128 17 250 -6 186 -34 298 -116 466 -157 320 -416 542 -764 653 -157 50 -259 64 -432 58 -176 -6 -273 -29 -422 -102 -440 -216 -770 -776 -873 -1482 -22 -154 -28 -440 -11 -543 5 -30 8 -57 6 -58 -2 -2 -84 40 -182 93 -2249 1220 -4818 1659 -7368 1259 -1287 -201 -2581 -642 -3724 -1268 -96 -53 -176 -94 -178 -93 -1 2 2 32 8 68 16 95 13 375 -6 514 -69 514 -264 966 -543 1256 -120 125 -200 186 -327 249 -163 81 -250 102 -445 106 -118 2 -188 -1 -244 -12z"
       id="path122" />
    <path
       d="M35345 23540 c-909 -76 -1802 -464 -2593 -1127 -148 -123 -488 -462 -616 -612 -480 -566 -821 -1204 -991 -1854 -75 -290 -104 -502 -112 -818 -10 -415 34 -734 152 -1097 180 -558 563 -1143 950 -1453 717 -574 1990 -874 3160 -744 1121 124 2025 601 2575 1360 642 886 775 2142 389 3680 -101 402 -283 954 -410 1243 -268 612 -687 1055 -1185 1252 -163 65 -429 126 -673 156 -157 18 -500 26 -646 14z m744 -2740 c198 -18 336 -55 511 -136 521 -245 850 -787 827 -1364 -8 -204 -59 -415 -136 -567 l-26 -52 -1 127 c-2 149 -23 242 -84 370 -92 193 -226 329 -411 417 -116 54 -215 76 -349 76 -141 0 -237 -22 -365 -85 -167 -82 -297 -214 -385 -391 -71 -143 -94 -245 -93 -415 0 -140 13 -211 62 -341 81 -216 282 -412 499 -490 106 -37 82 -44 -158 -44 -168 0 -210 3 -299 23 -302 68 -544 203 -752 420 -347 361 -481 857 -364 1348 143 602 662 1048 1284 1104 47 4 95 8 106 9 11 0 71 -4 134 -9z"
       id="path124" />
    <path
       d="M43400 23544 c-340 -29 -609 -81 -830 -159 -112 -40 -312 -147 -419 -223 -112 -79 -316 -273 -408 -387 -150 -185 -315 -464 -419 -708 -20 -45 -71 -181 -114 -302 -411 -1153 -565 -2198 -454 -3065 167 -1296 930 -2224 2186 -2655 1221 -419 2809 -278 3843 343 240 144 454 329 619 535 730 913 944 2005 615 3141 -303 1048 -1062 2048 -2059 2710 -227 151 -371 234 -605 347 -455 219 -888 348 -1355 404 -129 15 -506 27 -600 19z m60 -2760 c299 -50 548 -176 769 -389 129 -124 209 -235 291 -400 118 -238 156 -415 147 -688 -6 -187 -19 -263 -72 -424 -118 -353 -384 -660 -719 -827 -230 -115 -440 -161 -704 -154 -172 5 -213 16 -140 37 112 34 244 119 339 217 182 191 257 396 246 671 -6 161 -20 220 -86 358 -113 238 -310 402 -560 466 -86 22 -260 27 -349 10 -153 -30 -292 -103 -409 -215 -184 -174 -270 -367 -281 -625 l-5 -135 -24 48 c-33 64 -88 233 -110 336 -26 122 -25 449 1 570 139 636 654 1098 1296 1160 103 10 256 4 370 -16z"
       id="path126" />
    <path
       d="M38360 16189 c-371 -46 -576 -220 -667 -564 -23 -88 -26 -120 -26 -260 0 -180 15 -260 74 -376 46 -93 79 -130 184 -209 241 -181 617 -372 965 -491 635 -217 1148 -231 1720 -47 421 135 920 414 1123 627 175 184 235 572 135 881 -72 225 -208 361 -413 414 -222 57 -456 44 -1020 -55 -589 -104 -609 -104 -1275 15 -364 65 -631 87 -800 65z"
       id="path128" />
    <a
       href="/map"
       id="a2044">
      <path
         d="M24275 8148 c-313 -35 -687 -164 -950 -328 -597 -371 -991 -975 -1090 -1670 -24 -166 -24 -480 -1 -635 78 -510 288 -940 636 -1298 201 -208 391 -347 645 -472 225 -111 421 -173 685 -218 l125 -21 15125 -3 c10164 -3 15174 0 15275 6 573 39 1071 258 1479 651 390 376 627 855 696 1405 16 130 14 428 -5 570 -74 565 -361 1096 -790 1463 -356 305 -808 502 -1267 551 -124 14 -30444 13 -30563 -1z m11442 -1424 c52 -39 68 -71 68 -134 0 -66 -18 -99 -75 -137 -24 -17 -48 -23 -84 -23 -104 0 -166 60 -166 160 0 68 27 115 80 143 46 24 139 19 177 -9z m4800 0 c52 -39 68 -71 68 -134 0 -95 -55 -151 -152 -157 -92 -6 -154 37 -173 120 -16 73 17 147 81 180 45 24 138 19 176 -9z m8121 0 c32 -24 72 -98 72 -134 0 -36 -40 -110 -72 -133 -33 -25 -114 -33 -162 -17 -71 23 -117 113 -96 189 13 49 45 89 84 107 44 20 139 13 174 -12z m-17711 -1 c-3 -5 -183 -315 -401 -690 -218 -375 -399 -689 -402 -697 -6 -14 35 -16 395 -16 l402 0 -3 -117 -3 -118 -627 -3 c-346 -1 -628 0 -628 3 0 3 182 320 405 704 223 385 405 702 405 705 0 3 -164 6 -365 6 l-365 0 0 115 0 115 596 0 c327 0 593 -3 591 -7z m11485 -480 l3 -487 208 247 209 247 159 0 c87 0 159 -2 159 -5 0 -3 -101 -121 -225 -262 -124 -140 -225 -259 -225 -263 0 -5 115 -149 255 -320 140 -171 255 -314 255 -316 0 -2 -75 -4 -167 -4 l-168 1 -230 290 -230 290 -3 -290 -2 -291 -140 0 -140 0 0 825 0 825 140 0 140 0 2 -487z m6918 230 c0 -224 -19 -570 -45 -840 l-7 -63 -88 0 -89 0 -5 53 c-26 229 -46 588 -46 832 l0 275 140 0 140 0 0 -257z m-16269 211 c13 -14 54 -52 90 -84 l65 -59 92 85 92 84 130 0 c72 0 130 -2 130 -5 0 -3 -57 -71 -127 -150 l-127 -145 -190 0 -191 1 -115 131 c-63 72 -121 140 -128 150 -13 17 -7 18 121 18 131 0 134 0 158 -26z m14829 -289 l0 -145 130 0 130 0 0 -100 0 -100 -130 0 -130 0 0 -325 c0 -358 2 -370 60 -400 19 -10 58 -15 115 -15 l85 0 0 -115 0 -115 -108 0 c-222 0 -327 44 -389 164 -38 74 -43 122 -43 469 l0 337 -100 0 -100 0 0 100 0 100 100 0 100 0 0 145 0 145 140 0 140 0 0 -145z m-16096 -135 c96 -24 162 -60 221 -118 l45 -44 0 76 0 77 138 -3 137 -3 0 -580 0 -580 -137 -3 -138 -3 0 82 0 81 -60 -55 c-261 -242 -700 -156 -855 167 -114 237 -78 562 83 746 74 85 199 154 312 173 68 11 182 6 254 -13z m1584 4 c177 -36 320 -141 392 -288 22 -44 43 -102 46 -128 l7 -48 -141 0 -142 0 -6 28 c-4 15 -20 54 -37 86 -56 106 -149 151 -296 144 -71 -3 -95 -9 -139 -33 -115 -62 -172 -182 -172 -360 0 -150 35 -241 121 -319 66 -59 133 -80 238 -74 93 6 162 38 215 99 31 37 76 131 76 159 0 6 57 10 140 10 l140 0 0 -24 c0 -45 -40 -152 -78 -212 -104 -161 -295 -254 -519 -254 -308 1 -539 172 -609 450 -21 82 -21 233 0 322 52 222 228 394 451 442 93 19 218 20 313 0z m1453 6 c168 -31 286 -152 318 -325 7 -36 11 -216 11 -462 l0 -403 -140 0 -140 0 0 378 c0 403 -5 459 -51 523 -30 43 -93 71 -170 77 -128 9 -224 -50 -271 -166 -22 -55 -23 -68 -26 -435 l-3 -378 -142 3 -142 3 0 580 0 580 138 3 137 3 0 -77 0 -77 48 49 c109 110 266 155 433 124z m3400 -4 c86 -19 179 -66 240 -123 l49 -46 0 77 0 76 135 0 135 0 0 -585 0 -585 -135 0 -135 0 0 80 c0 44 -1 80 -3 80 -2 0 -26 -22 -55 -50 -103 -100 -237 -146 -397 -137 -302 16 -499 220 -530 548 -8 87 8 218 37 304 59 176 209 317 384 359 77 19 192 19 275 2z m3247 -2 c189 -39 313 -152 350 -321 l10 -43 -134 0 c-114 0 -134 2 -134 15 0 24 -35 87 -62 112 -42 39 -97 56 -188 56 -139 1 -210 -45 -210 -135 0 -83 65 -115 333 -164 218 -39 352 -121 397 -242 31 -83 28 -191 -9 -267 -68 -142 -209 -213 -441 -223 -213 -8 -366 37 -470 138 -61 59 -107 151 -116 233 l-7 58 128 -3 128 -3 12 -47 c33 -131 176 -204 347 -177 108 17 168 68 168 140 0 96 -47 125 -273 169 -239 48 -319 80 -387 157 -75 86 -90 236 -35 348 82 168 333 252 593 199z m2597 -9 c222 -60 379 -222 431 -444 24 -98 15 -263 -19 -360 -84 -239 -291 -384 -567 -398 -332 -17 -590 159 -665 452 -20 77 -19 243 0 320 60 231 231 390 475 441 82 17 263 11 345 -11z m2557 11 c89 -19 170 -61 235 -120 l53 -48 0 76 0 76 135 0 135 0 0 -585 0 -585 -135 0 -135 0 0 81 0 81 -60 -55 c-98 -91 -219 -137 -360 -137 -273 1 -478 164 -545 435 -24 98 -23 266 4 366 81 312 357 482 673 415z m-9232 -140 l0 -133 -97 -6 c-113 -6 -156 -21 -218 -78 -88 -82 -104 -169 -105 -577 l0 -253 -137 3 -138 3 0 580 0 580 135 0 135 0 3 -109 3 -108 30 45 c76 115 201 182 347 186 l42 1 0 -134z m-1640 -461 l0 -585 -140 0 -140 0 0 585 0 585 140 0 140 0 0 -585z m4258 568 c-3 -10 -127 -220 -276 -468 l-270 -450 264 -3 264 -2 0 -115 0 -115 -481 0 c-420 0 -480 2 -475 15 3 8 129 220 281 471 151 250 275 457 275 460 0 2 -112 4 -250 4 l-250 0 0 110 0 110 461 0 c435 0 461 -1 457 -17z m542 -568 l0 -585 -140 0 -140 0 0 585 0 585 140 0 140 0 0 -585z m4497 155 c84 -234 157 -438 163 -455 l11 -30 23 60 c12 33 85 239 161 458 l138 397 134 0 c104 0 134 -3 131 -12 -2 -7 -98 -271 -213 -585 l-209 -573 -173 0 -174 0 -14 33 c-34 81 -415 1115 -415 1126 0 8 37 11 143 9 l142 -3 152 -425z m3623 -155 l0 -585 -140 0 -140 0 0 585 0 585 140 0 140 0 0 -585z m583 -269 c69 -28 115 -118 102 -197 -25 -148 -223 -202 -320 -87 -76 91 -45 238 60 284 39 17 117 17 158 0z"
         id="path130" />
      <path
         d="M31635 6054 c-184 -47 -274 -190 -263 -419 10 -188 91 -309 237 -351 80 -24 193 -15 264 20 261 127 260 598 -1 722 -43 20 -75 27 -136 30 -45 1 -90 1 -101 -2z"
         id="path132" />
      <path
         d="M38065 6047 c-68 -23 -101 -44 -148 -97 -133 -148 -123 -454 20 -592 65 -63 122 -83 238 -83 86 0 107 4 150 25 68 34 121 90 158 168 31 64 32 72 32 197 0 125 -1 133 -31 196 -61 128 -157 190 -299 196 -48 2 -96 -3 -120 -10z"
         id="path134" />
      <path
         d="M43763 6042 c-158 -56 -233 -178 -233 -378 0 -246 131 -394 348 -394 113 0 164 20 238 94 88 88 108 144 108 301 1 104 -3 128 -23 180 -31 76 -105 155 -174 186 -72 31 -193 36 -264 11z"
         id="path136" />
      <path
         d="M46470 6047 c-173 -49 -268 -229 -240 -453 25 -193 140 -311 315 -322 231 -15 376 136 378 393 1 231 -127 383 -330 392 -44 1 -98 -3 -123 -10z"
         id="path138" />
    </a>
  </g>
  <a
     href="/map"
     id="a2059">
    <path
       style="fill:#00ffff;fill-rule:evenodd;stroke:#c7c7c7;stroke-width:4.95926;stroke-linecap:round;stroke-linejoin:bevel"
       d="m 3956.0136,5321.0748 c 0,-0.3855 8.3943,-15.2455 18.6541,-33.0221 10.2597,-17.7767 32.6599,-56.5791 49.7782,-86.2275 36.5237,-63.2582 38.6877,-67.1397 37.8811,-67.9469 -0.3368,-0.3371 -22.2301,-0.7457 -48.6517,-0.908 l -48.0393,-0.295 v -14.8498 -14.8497 l 77.781,0.2739 c 42.7795,0.1506 78.0396,0.5327 78.3556,0.849 0.3161,0.3163 -15.7362,28.6584 -35.6717,62.9825 -57.3879,98.8082 -69.729,120.3454 -69.729,121.6888 0,2.014 9.3613,2.3892 59.6155,2.3892 h 46.2302 l -0.01,9.4036 c 0,5.172 -0.2572,12.0607 -0.5639,15.3083 l -0.5576,5.9046 h -82.5382 c -45.396,0 -82.5382,-0.3154 -82.5382,-0.7009 z"
       id="path973"
       transform="scale(0.75)" />
    <path
       style="fill:#00ffff;fill-rule:evenodd;stroke:#c7c7c7;stroke-width:4.95926;stroke-linecap:round;stroke-linejoin:bevel"
       d="m 4201.5716,5324.4022 c -21.0765,-5.3447 -38.5315,-19.1635 -47.7728,-37.8206 -9.4238,-19.0256 -11.8889,-40.7793 -7.1141,-62.7788 5.4467,-25.095 18.2803,-42.482 39.0276,-52.8747 10.2017,-5.1102 16.1807,-6.6757 27.5951,-7.2253 12.0903,-0.5822 21.8061,0.6551 31.9737,4.0719 9.1535,3.0759 15.5225,6.8973 23.0352,13.821 3.2627,3.007 6.1689,5.4673 6.4581,5.4673 0.2892,0 0.5259,-4.5269 0.5259,-10.0598 v -10.0597 h 5.4672 c 3.007,0 11.0766,0.2598 17.9325,0.5735 l 12.4653,0.5702 v 76.8427 76.8426 h -12.5556 c -6.9057,0 -14.9753,0.2529 -17.9326,0.562 l -5.3768,0.562 v -11.0591 c 0,-6.0825 -0.3251,-11.0591 -0.7223,-11.0591 -0.3973,0 -1.6766,1.0245 -2.843,2.2768 -7.9242,8.5076 -21.1094,16.7539 -32.7372,20.4747 -8.9262,2.8562 -27.8568,3.2959 -37.4262,0.8692 z m 38.914,-28.1085 c 22.7362,-4.8494 37.2738,-27.8953 35.418,-56.147 -1.6141,-24.5715 -15.5303,-43.083 -35.3141,-46.9752 -3.0801,-0.606 -9.7229,-0.9091 -15.7107,-0.7168 -9.8568,0.3165 -10.7064,0.4945 -17.0337,3.5692 -12.7942,6.2172 -20.9916,17.465 -24.0467,32.9949 -1.7634,8.9638 -1.2513,27.2704 0.992,35.4602 4.353,15.8919 15.3968,27.4991 29.9879,31.5178 5.1815,1.4271 19.6264,1.5939 25.7073,0.2969 z"
       id="path975"
       transform="scale(0.75)" />
    <path
       style="fill:#00ffff;fill-rule:evenodd;stroke:#c7c7c7;stroke-width:4.95926;stroke-linecap:round;stroke-linejoin:bevel"
       d="m 4413.0746,5324.743 c -30.7304,-5.4867 -53.2216,-24.5299 -62.3939,-52.8285 -5.5293,-17.0594 -4.8038,-42.2969 1.6829,-58.5392 9.3333,-23.3703 29.3209,-41.0003 53.713,-47.3772 9.0167,-2.3572 27.9363,-3.2107 38.1307,-1.7201 20.2509,2.9611 38.524,12.7119 49.8962,26.6254 7.0387,8.6118 14.7571,26.1439 14.7571,33.5206 v 2.0031 h -18.2725 -18.2726 l -0.5677,-3.0263 c -0.953,-5.0798 -7.3307,-16.7586 -11.4874,-21.0356 -8.0505,-8.2833 -21.1514,-11.8204 -37.5623,-10.1415 -10.3327,1.0571 -18.4178,4.9324 -24.7347,11.8555 -9.3542,10.252 -12.6293,20.658 -12.6774,40.2804 -0.044,17.7962 2.2707,26.6082 9.5216,36.254 8.6512,11.5087 19.2876,16.6689 34.3584,16.6689 21.7482,0 34.7881,-9.3381 42.1427,-30.1792 l 1.5434,-4.3738 5.539,-0.5538 c 3.0464,-0.3046 11.1483,-0.5998 18.0042,-0.6561 l 12.4653,-0.1022 v 3.1261 c 0,7.4641 -8.3626,26.2564 -15.3016,34.3857 -11.816,13.8428 -30.207,23.5556 -49.7485,26.2736 -9.1023,1.266 -22.1645,1.0706 -30.7359,-0.4598 z"
       id="path977"
       transform="scale(0.75)" />
    <path
       style="fill:#00ffff;fill-rule:evenodd;stroke:#c7c7c7;stroke-width:4.95926;stroke-linecap:round;stroke-linejoin:bevel"
       d="m 4391.8852,5131.2901 c -19.783,-22.6279 -20.7267,-23.8149 -19.7273,-24.8142 0.5849,-0.585 6.5006,-0.8061 16.5587,-0.6191 l 15.6488,0.291 12.1327,11.1893 c 12.0351,11.0993 12.1474,11.1762 13.9769,9.5741 1.0144,-0.8884 6.6093,-6.022 12.4331,-11.408 l 10.5889,-9.7927 h 16.2583 c 8.9421,0 16.4403,0.2952 16.6627,0.656 0.2223,0.3609 -7.056,9.2178 -16.1741,19.6821 l -16.5783,19.026 h -24.8645 -24.8645 z"
       id="path981"
       transform="scale(0.75)" />
    <path
       style="fill:#00ffff;fill-rule:evenodd;stroke:#c7c7c7;stroke-width:4.95926;stroke-linecap:round;stroke-linejoin:bevel"
       d="m 4558.5031,5321.9959 -14.6522,-0.2625 v -76.8215 -76.8215 l 12.4653,-0.5702 c 6.856,-0.3137 14.9256,-0.5717 17.9326,-0.5735 h 5.4672 v 10.0597 c 0,5.5329 0.2421,10.0598 0.538,10.0598 0.2959,0 3.8459,-3.1312 7.8888,-6.9582 8.4909,-8.0374 16.0461,-12.1789 27.4112,-15.0259 10.436,-2.6143 25.3745,-2.0403 35.4548,1.3623 13.4727,4.5477 23.7317,13.3132 29.6619,25.3437 6.214,12.6061 6.0277,10.467 6.4248,73.7876 l 0.358,57.0779 h -17.8659 -17.8658 l -0.5613,-49.2051 c -0.3156,-27.6626 -0.9795,-52.0775 -1.5166,-55.7658 -2.3141,-15.8942 -9.5361,-23.0677 -25.6339,-25.462 -21.8859,-3.2551 -39.1173,10.2011 -41.6871,32.554 -0.4643,4.0378 -0.8471,16.4296 -0.8507,27.5373 0,11.1077 -0.2668,31.4786 -0.5849,45.2687 l -0.5782,25.0729 -3.5769,-0.196 c -1.9673,-0.1078 -10.1703,-0.3142 -18.2291,-0.4585 z"
       id="path985"
       transform="scale(0.75)" />
    <path
       style="fill:#00ffff;fill-rule:evenodd;stroke:#c7c7c7;stroke-width:4.95926;stroke-linecap:round;stroke-linejoin:bevel"
       d="m 4731.0491,5244.797 v -77.8535 h 18.37 18.3699 v 77.8535 77.8534 h -18.3699 -18.37 z"
       id="path987"
       transform="scale(0.75)" />
    <path
       style="fill:#00ffff;fill-rule:evenodd;stroke:#c7c7c7;stroke-width:4.95926;stroke-linecap:round;stroke-linejoin:bevel"
       d="m 4743.1633,5141.2871 c -5.0911,-1.435 -7.9,-3.2562 -10.6579,-6.9103 -6.3002,-8.3477 -5.1192,-21.7944 2.5034,-28.504 8.3818,-7.378 21.2243,-7.1766 29.3893,0.4609 4.8541,4.5404 6.3351,8.2423 6.2249,15.5598 -0.093,6.1652 -0.9357,8.7091 -4.1523,12.5318 -5.4994,6.5356 -14.7756,9.2666 -23.3074,6.8618 z"
       id="path989"
       transform="scale(0.75)" />
    <path
       style="fill:#00ffff;fill-rule:evenodd;stroke:#c7c7c7;stroke-width:4.95926;stroke-linecap:round;stroke-linejoin:bevel"
       d="m 4908.8437,5321.9959 -14.2148,-0.2636 v -76.957 -76.957 h 17.4951 17.4952 l 0.1143,8.0915 c 0.063,4.4503 0.3581,10.9701 0.6561,14.4884 l 0.5417,6.397 4.8112,-6.7561 c 10.7768,-15.1333 27.3536,-23.9054 45.2687,-23.9551 l 5.4673,-0.015 v 16.9642 c 0,19.2511 0.5265,18.0261 -7.7487,18.0261 -16.3042,0 -26.9136,3.4646 -35.0079,11.4323 -11.2551,11.079 -13.2037,22.5137 -13.2189,77.5743 l -0.01,32.5847 -3.7178,-0.1954 c -2.0447,-0.1075 -10.1144,-0.3141 -17.9325,-0.4591 z"
       id="path991"
       transform="scale(0.75)" />
    <path
       style="fill:#00ffff;fill-rule:evenodd;stroke:#c7c7c7;stroke-width:4.95926;stroke-linecap:round;stroke-linejoin:bevel"
       d="m 5069.1186,5325.2979 c -25.3735,-3.6059 -43.7232,-16.4654 -54.6403,-38.2923 -8.4392,-16.8727 -11.3194,-36.4906 -8.3158,-56.6421 3.0878,-20.7167 10.1434,-34.8679 23.8152,-47.7652 10.2097,-9.6313 20.8074,-15.1493 34.375,-17.8985 8.7846,-1.78 27.0028,-1.3374 35.4069,0.8601 9.0571,2.3682 22.4786,9.678 29.2061,15.9066 3.3246,3.0781 6.2813,5.5965 6.5705,5.5965 0.2892,0 0.5259,-4.5269 0.5259,-10.0598 v -10.0597 h 17.9325 17.9325 v 77.8535 77.8534 h -17.9064 -17.9064 l -0.2448,-11.1531 -0.2448,-11.1532 -6.1233,5.7208 c -10.5416,9.8484 -19.372,14.8788 -31.3149,17.8388 -7.0442,1.7458 -21.6602,2.4469 -29.0679,1.3942 z m 41.0922,-31.8439 c 10.2985,-5.0898 18.8422,-14.8745 23.2792,-26.6605 2.3366,-6.2066 3.2923,-24.9728 1.8253,-35.8402 -1.8029,-13.3558 -11.7185,-28.1789 -22.5063,-33.6455 -7.8569,-3.9814 -14.493,-5.1921 -26.6081,-4.8545 -10.1583,0.2831 -11.3542,0.5032 -16.8466,3.1006 -18.6321,8.8116 -29.0932,31.3803 -26.1376,56.3894 1.9208,16.253 8.0732,28.8332 17.9847,36.7743 8.2391,6.6013 16.17,8.62 32.2336,8.205 9.838,-0.2542 10.584,-0.4085 16.7758,-3.4686 z"
       id="path993"
       transform="scale(0.75)" />
    <path
       style="fill:#00ffff;fill-rule:evenodd;stroke:#c7c7c7;stroke-width:4.95926;stroke-linecap:round;stroke-linejoin:bevel"
       d="m 5228.2013,5321.8074 c -11.147,-0.258 -20.5565,-0.7593 -20.9102,-1.114 -0.3536,-0.3547 15.7535,-27.9752 35.7937,-61.3789 20.0401,-33.4036 36.6757,-61.3572 36.968,-62.1189 0.4791,-1.2486 -2.752,-1.3851 -32.8029,-1.3851 h -33.3344 v -14.4335 -14.4335 h 53.6657 c 55.58,0 67.0509,0.3706 67.0509,2.1662 0,1.2042 -9.078,16.6774 -45.3656,77.3241 -14.5005,24.2344 -26.3645,44.4085 -26.3645,44.8313 0,0.4291 15.4627,0.7688 34.9903,0.7688 h 34.9903 v 15.3083 15.3082 l -42.2071,-0.187 c -23.2139,-0.1028 -51.3273,-0.398 -62.4742,-0.656 z"
       id="path995"
       transform="scale(0.75)" />
    <path
       style="fill:#00ffff;fill-rule:evenodd;stroke:#c7c7c7;stroke-width:4.95926;stroke-linecap:round;stroke-linejoin:bevel"
       d="m 5371.3719,5244.797 v -77.8535 h 17.9326 17.9325 v 77.8535 77.8534 h -17.9325 -17.9326 z"
       id="path997"
       transform="scale(0.75)" />
    <path
       style="fill:#00ffff;fill-rule:evenodd;stroke:#c7c7c7;stroke-width:4.95926;stroke-linecap:round;stroke-linejoin:bevel"
       d="m 5378.6407,5139.3597 c -13.9284,-6.9408 -14.1221,-28.0031 -0.3321,-36.1101 3.4784,-2.0449 4.907,-2.3416 10.9959,-2.283 7.7484,0.074 12.117,1.729 16.3553,6.1946 4.7669,5.0225 6.3676,13.4954 4.1052,21.7304 -1.221,4.4444 -7.0762,10.1856 -11.8452,11.6144 -6.1707,1.8488 -14.2304,1.3696 -19.2791,-1.1463 z"
       id="path999"
       transform="scale(0.75)" />
  <path
     style="fill:#ffffff;fill-rule:evenodd;stroke:#c7c7c7;stroke-width:2.95624;stroke-linecap:round;stroke-linejoin:bevel"
     d="m 2974.612,3988.7617 -3.9867,-0.2954 2.996,-5.2145 c 1.6478,-2.868 17.2709,-29.9702 34.7181,-60.2272 40.5261,-70.2807 40.4723,-70.1839 40.2832,-72.4627 -0.133,-1.6039 -0.3546,-1.8483 -1.9749,-2.1789 -1.0038,-0.2048 -17.2534,-0.5425 -36.1103,-0.7504 l -34.2851,-0.3779 v -8.9791 -8.9791 l 52.5358,0.2419 c 28.8947,0.133 53.999,0.3966 55.7873,0.5856 l 3.2515,0.3437 -12.4042,21.64 c -6.8223,11.9021 -21.9227,38.0657 -33.5563,58.1414 -34.3877,59.3413 -33.0307,56.7372 -30.4466,58.4303 2.1591,1.4147 10.2587,1.7267 45.7872,1.7636 l 32.1994,0.033 -0.01,7.4307 c 0,4.0868 -0.1511,8.3105 -0.3289,9.386 l -0.3232,1.9555 -55.0749,-0.096 c -30.2911,-0.053 -56.8689,-0.2285 -59.0616,-0.3911 z"
     id="path2625" />
  <path
     style="fill:#ffffff;fill-rule:evenodd;stroke:#c7c7c7;stroke-width:2.95624;stroke-linecap:round;stroke-linejoin:bevel"
     d="m 3154.8641,3991.7966 c -9.4845,-1.3815 -20.6665,-7.2752 -28.3154,-14.9241 -11.3239,-11.3239 -17.5895,-30.5946 -15.8721,-48.8173 2.3584,-25.0241 14.4767,-42.4178 35.1035,-50.3848 5.2703,-2.0357 9.7145,-2.6891 18.1933,-2.6751 14.8585,0.025 24.9217,3.5489 35.1977,12.3269 8.2751,7.0689 8.8398,6.8775 9.3783,-3.1779 l 0.3775,-7.0476 7.3761,0.2988 c 4.0569,0.1642 9.0774,0.428 11.1566,0.5861 l 3.7805,0.2875 v 55.4897 55.4897 h -8.4735 c -4.6604,0 -9.6723,0.1485 -11.1374,0.3246 l -2.6638,0.3201 -0.3831,-7.2286 c -0.2107,-3.9756 -0.6041,-7.6415 -0.8743,-8.1463 -0.9531,-1.7809 -2.9394,-1.071 -6.6021,2.3595 -8.6769,8.1268 -18.5981,13.3625 -28.0072,14.7803 -5.1633,0.778 -13.3977,0.8385 -18.2346,0.1339 z m 27.6992,-17.9732 c 12.4452,-3.2416 22.2553,-14.6275 25.5578,-29.6635 1.1096,-5.0518 1.0751,-16.0027 -0.067,-21.396 -3.3255,-15.6986 -13.495,-26.9669 -26.8725,-29.7761 -2.9113,-0.6114 -6.0526,-0.7726 -12.29,-0.6308 l -8.3792,0.1906 -4.9177,2.388 c -9.7095,4.7147 -15.4087,11.4292 -18.6691,21.9948 -2.5487,8.259 -2.5461,24.794 0.01,33.0641 3.536,11.4623 11.7572,20.2756 22.0122,23.5973 5.0002,1.6197 17.8095,1.7452 23.6208,0.2316 z"
     id="path2627" />
  <path
     style="fill:#ffffff;fill-rule:evenodd;stroke:#c7c7c7;stroke-width:2.95624;stroke-linecap:round;stroke-linejoin:bevel"
     d="m 3312.3357,3991.8278 c -26.2724,-4.0944 -44.9273,-21.7138 -49.0417,-46.3198 -1.1947,-7.1448 -0.8284,-20.5782 0.7461,-27.3589 2.3066,-9.9343 7.2741,-18.6075 15.1336,-26.4231 9.2623,-9.2107 19.3654,-14.3853 31.5872,-16.1785 6.3638,-0.9337 20.0298,-0.7877 25.0295,0.2674 13.0632,2.7567 25.5418,9.634 32.2609,17.7798 4.7381,5.7443 10.2137,16.8043 11.1374,22.4961 l 0.279,1.7193 h -11.7183 -11.7182 l -0.6639,-2.2161 c -0.9906,-3.3069 -4.3132,-9.66 -6.7425,-12.8921 -5.0441,-6.7112 -12.2351,-10.0811 -23.0027,-10.7799 -5.8294,-0.3782 -12.9244,0.4487 -17.1276,1.9964 -9.578,3.5268 -16.9641,12.0636 -19.9946,23.1096 -1.0222,3.7259 -1.1476,5.4807 -1.1743,16.4256 -0.028,11.3021 0.064,12.578 1.1748,16.4256 3.0249,10.4749 11.1653,19.6676 20.4383,23.0806 9.5794,3.5258 23.9019,2.3994 32.0709,-2.5222 4.6741,-2.816 9.2283,-8.0175 11.946,-13.644 1.2828,-2.6558 2.4836,-5.4569 2.6684,-6.2247 0.4209,-1.7483 0.9976,-1.8434 13.9301,-2.2981 l 9.7771,-0.3437 v 1.4056 c 0,4.0589 -6.4573,18.1062 -10.6782,23.2294 -6.9646,8.4536 -18.5099,15.2385 -31.0668,18.2573 -3.8647,0.9292 -6.7761,1.2174 -13.5284,1.3391 -4.7321,0.085 -10.0071,-0.064 -11.7221,-0.3307 z"
     id="path2629" />
  <path
     style="fill:#ffffff;fill-rule:evenodd;stroke:#c7c7c7;stroke-width:2.95624;stroke-linecap:round;stroke-linejoin:bevel"
     d="m 3293.5531,3844.7681 c -5.7359,-6.6171 -10.5099,-12.392 -10.6088,-12.8332 -0.1593,-0.7103 0.944,-0.7577 9.6439,-0.4143 l 9.8238,0.3877 1.872,1.6262 c 1.0296,0.8944 4.6253,4.151 7.9905,7.2368 6.8422,6.2742 8.6355,7.4405 10.4641,6.8054 0.6696,-0.2325 5.0916,-4.0011 9.8268,-8.3748 l 8.6094,-7.9521 h 9.3445 c 5.1395,0 9.4943,0.1497 9.6772,0.3327 0.3829,0.3829 -1.8352,3.1028 -13.0174,15.9626 l -8.0483,9.2557 -17.5744,-8e-4 -17.5743,-8e-4 z"
     id="path2631" />
  <path
     style="fill:#ffffff;fill-rule:evenodd;stroke:#c7c7c7;stroke-width:2.95624;stroke-linecap:round;stroke-linejoin:bevel"
     d="m 3417.0058,3989.3802 -6.9092,-0.162 v -55.4746 -55.4745 l 3.7805,-0.2863 c 2.0793,-0.1574 7.0905,-0.4138 11.1361,-0.5698 l 7.3555,-0.2835 0.2753,6.7866 c 0.4153,10.2403 1.2892,10.5898 9.0002,3.5985 6.1693,-5.5935 10.7005,-8.424 16.7287,-10.4497 11.1257,-3.7386 23.6273,-3.0037 34.1125,2.0054 4.2348,2.0232 5.5969,3.0199 9.386,6.8681 4.8467,4.9223 8.1382,10.3673 9.6649,15.9883 1.0744,3.9557 1.7362,27.2935 1.7776,62.6834 l 0.029,25.1598 h -11.1504 -11.1504 l -0.3102,-19.1632 c -0.6608,-40.8263 -1.2629,-58.0993 -2.1402,-61.4004 -3.0084,-11.3197 -10.0633,-16.5169 -23.4827,-17.2994 -14.4968,-0.8454 -25.7695,7.3898 -29.5233,21.5679 -1.0005,3.779 -1.1128,6.269 -1.5473,34.3186 -0.2577,16.6342 -0.6109,32.8838 -0.7849,36.1102 l -0.3164,5.8663 -4.5113,-0.1139 c -2.4811,-0.063 -7.6203,-0.1867 -11.4204,-0.2758 z"
     id="path2633" />
  <path
     style="fill:#ffffff;fill-rule:evenodd;stroke:#c7c7c7;stroke-width:2.95624;stroke-linecap:round;stroke-linejoin:bevel"
     d="m 3550.366,3933.4536 v -56.3164 h 11.7326 11.7326 v 56.3164 56.3163 h -11.7326 -11.7326 z"
     id="path2635" />
  <path
     style="fill:#ffffff;fill-rule:evenodd;stroke:#c7c7c7;stroke-width:2.95624;stroke-linecap:round;stroke-linejoin:bevel"
     d="m 3560.0128,3854.3796 c -4.133,-1.0024 -6.0864,-1.9919 -7.9734,-4.039 -2.5145,-2.728 -3.464,-5.3377 -3.4362,-9.444 0.086,-12.6062 15.2956,-17.975 24.0151,-8.4767 4.4675,4.8664 4.5201,12.5617 0.1184,17.3369 -2.9981,3.2526 -9.1532,5.4889 -12.7239,4.6228 z"
     id="path2637" />
  <path
     style="fill:#ffffff;fill-rule:evenodd;stroke:#c7c7c7;stroke-width:2.95624;stroke-linecap:round;stroke-linejoin:bevel"
     d="m 3679.8154,3989.3802 -6.9092,-0.162 v -55.519 -55.5191 h 11.2111 11.2112 v 4.8234 c 0,2.6529 0.1531,7.0944 0.3369,9.8701 0.3095,4.6733 0.4214,5.0686 1.5132,5.3426 0.6484,0.1628 1.5064,0.4216 1.9066,0.5752 0.4725,0.1813 1.7595,-1.1619 3.67,-3.8305 7.8551,-10.9714 18.3832,-17.1918 30.7666,-18.1779 l 4.0412,-0.3218 v 10.9568 10.9568 l -6.127,0.3719 c -8.3134,0.5045 -12.6386,1.4722 -17.7219,3.9647 -7.2826,3.5709 -12.7429,10.0515 -14.9693,17.7664 -2.053,7.1139 -2.4683,13.4275 -2.7482,41.7857 l -0.2715,27.5064 -4.5016,-0.1139 c -2.4759,-0.063 -7.6108,-0.1867 -11.4108,-0.2758 z"
     id="path2639" />
  <path
     style="fill:#ffffff;fill-rule:evenodd;stroke:#c7c7c7;stroke-width:2.95624;stroke-linecap:round;stroke-linejoin:bevel"
     d="m 3800.8688,3991.6524 c -20.8756,-3.4143 -35.2171,-16.0458 -41.8037,-36.8195 -2.3469,-7.402 -2.9774,-11.8564 -2.9523,-20.8579 0.025,-8.8389 0.861,-14.7059 3.132,-21.9715 4.5644,-14.6025 14.9155,-26.4753 28.5786,-32.7799 7.4863,-3.4544 10.1134,-3.9114 22.4843,-3.9114 10.0282,0 11.2778,0.1028 14.8388,1.221 7.1778,2.254 15.1786,6.8513 21.3841,12.2875 6.2078,5.4382 7.1044,4.8763 7.6184,-4.7743 l 0.368,-6.9092 h 11.1376 11.1376 v 56.3164 56.3163 h -11.1503 c -13.1001,0 -11.7753,0.9509 -11.7863,-8.4601 l -0.01,-6.1136 -1.6175,-0.8365 c -1.8453,-0.9542 -1.1291,-1.3784 -7.4778,4.4291 -6.9666,6.3726 -14.8384,10.6055 -22.713,12.2133 -5.6948,1.1628 -16.0866,1.482 -21.1714,0.6503 z m 32.1627,-19.4473 c 7.3986,-3.6765 13.4616,-9.8083 17.3075,-17.5039 2.7346,-5.4718 3.0459,-7.2794 3.3441,-19.4226 0.2151,-8.7556 0.1082,-11.6349 -0.5333,-14.3659 -2.6757,-11.3915 -9.4762,-20.6837 -18.3341,-25.0518 -6.1338,-3.0248 -10.3077,-3.7384 -20.3365,-3.4769 -7.478,0.195 -8.6746,0.3555 -11.5395,1.5487 -15.6217,6.506 -24.7443,24.3205 -22.658,44.2461 1.2511,11.9487 4.9436,20.5587 11.7465,27.3901 7.4408,7.472 12.4223,9.1086 27.185,8.9315 l 9.4269,-0.1132 z"
     id="path2643" />
  <path
     style="fill:#ffffff;fill-rule:evenodd;stroke:#c7c7c7;stroke-width:2.95624;stroke-linecap:round;stroke-linejoin:bevel"
     d="m 3924.6784,3989.2825 c -8.2215,-0.1621 -15.1144,-0.461 -15.3176,-0.6642 -0.4373,-0.4374 5.0994,-9.9842 29.7251,-51.2539 23.6947,-39.7094 23.3681,-39.1358 22.9806,-40.3568 -0.6252,-1.9696 -2.7422,-2.1412 -26.4285,-2.1412 h -22.8659 v -8.8646 -8.8646 h 27.8127 c 30.2208,0 55.741,0.4738 56.677,1.0523 0.6438,0.3979 -0.6842,2.7003 -29.6209,51.3532 -21.8486,36.7353 -21.1736,35.579 -22.0128,37.7089 -0.5945,1.5089 -0.5694,1.8408 0.1967,2.6072 0.7948,0.7953 3.2912,0.8924 26.4105,1.0275 l 25.5328,0.1491 v 9.3673 9.3672 l -29.0707,-0.096 c -15.9889,-0.053 -35.7975,-0.2289 -44.019,-0.3911 z"
     id="path2645" />
  <path
     style="fill:#ffffff;fill-rule:evenodd;stroke:#c7c7c7;stroke-width:2.95624;stroke-linecap:round;stroke-linejoin:bevel"
     d="m 4030.6193,3933.4536 v -56.3164 h 11.4718 11.4718 v 56.3164 56.3163 h -11.4718 -11.4718 z"
     id="path2647" />
  <path
     style="fill:#ffffff;fill-rule:evenodd;stroke:#c7c7c7;stroke-width:2.95624;stroke-linecap:round;stroke-linejoin:bevel"
     d="m 4038.7017,3853.8431 c -5.6442,-1.242 -9.3554,-5.0876 -10.3878,-10.7641 -0.8737,-4.8039 1.7239,-10.3489 6.3815,-13.6224 2.0823,-1.4635 2.505,-1.556 6.8927,-1.5085 3.9746,0.043 5.1115,0.2644 7.5943,1.4792 8.3137,4.0675 9.1277,17.2953 1.3778,22.3897 -2.9658,1.9495 -8.1676,2.8382 -11.8585,2.0261 z"
     id="path2649" />
  <path
     style="fill:#ffffff;fill-rule:evenodd;stroke:#c7c7c7;stroke-width:2.95624;stroke-linecap:round;stroke-linejoin:bevel"
     d="m 4120.7616,3993.6917 c -18.124,-2.9489 -29.5658,-10.5321 -36.3663,-24.1022 -1.8818,-3.7551 -3.4968,-9.4599 -3.9928,-14.1048 l -0.3481,-3.259 h 4.3531 c 2.3942,0 8.0238,0.154 12.51,0.3401 l 8.1569,0.3383 0.9065,3.4405 c 2.3957,9.0931 8.5132,15.1688 18.2382,18.1139 4.3336,1.3124 15.8019,1.3094 20.5599,-0.01 10.0938,-2.7892 14.771,-8.7465 13.161,-16.763 -0.3235,-1.611 -1.0874,-3.6302 -1.6975,-4.487 -2.5419,-3.5698 -8.981,-6.0604 -23.4195,-9.0585 -23.8762,-4.9579 -31.5792,-7.7034 -37.9605,-13.53 -3.6528,-3.3354 -5.988,-6.9752 -7.6485,-11.9215 -2.6688,-7.9504 -2.1241,-17.0817 1.4673,-24.5954 6.4155,-13.4222 23.0053,-21.6549 43.6367,-21.6549 22.3533,0 39.1719,8.5258 46.59,23.6176 1.898,3.8616 4.4954,11.7805 4.4954,13.7057 0,0.4371 -23.9314,-0.112 -25.143,-0.5769 -0.4293,-0.1648 -1.072,-1.2846 -1.4282,-2.4885 -1.4078,-4.7584 -5.9165,-10.5433 -9.7686,-12.5337 -5.8836,-3.0399 -20.8751,-3.5196 -27.8544,-0.8911 -5.32,2.0035 -8.2546,6.1326 -8.2756,11.6438 -0.033,8.5834 4.7531,11.1954 29.817,16.2734 6.2243,1.261 12.9875,2.7903 15.0293,3.3984 14.8184,4.4131 24.6744,12.1579 28.1858,22.1484 2.9749,8.4643 2.3684,18.1578 -1.6466,26.3172 -1.738,3.532 -3.071,5.325 -6.4208,8.6367 -6.167,6.0966 -13.2194,9.4496 -24.2,11.5053 -6.3198,1.1832 -24.8731,1.4778 -30.9367,0.4912 z"
     id="path2651" />
  <path
     style="fill:#ffffff;fill-rule:evenodd;stroke:#c7c7c7;stroke-width:2.95624;stroke-linecap:round;stroke-linejoin:bevel"
     d="m 4213.1259,3909.467 v -82.3887 h 13.8184 13.8183 l 0.075,28.5492 c 0.041,15.7021 0.2172,37.6965 0.3911,48.8765 l 0.3163,20.3272 20.8962,-24.7595 20.8962,-24.7595 9.8692,-0.1315 c 5.4281,-0.072 12.4221,0.045 15.5424,0.2607 l 5.6732,0.3922 -6.9376,8.0824 c -3.8157,4.4454 -11.6645,13.4795 -17.4418,20.0758 -14.1912,16.2031 -20.0789,23.2468 -20.0789,24.021 0,0.8917 4.7209,6.8763 28.9007,36.6364 11.4936,14.1463 20.9647,25.9045 21.0469,26.1293 0.2847,0.7795 -4.7952,1.0772 -18.3838,1.0772 h -13.6566 l -23.1631,-29.2206 -23.163,-29.2206 -0.3204,12.4039 c -0.1763,6.8222 -0.3522,19.9714 -0.3911,29.2206 l -0.071,16.8167 h -13.8183 -13.8184 z"
     id="path2653" />
  <path
     style="fill:#ffffff;fill-rule:evenodd;stroke:#c7c7c7;stroke-width:2.95624;stroke-linecap:round;stroke-linejoin:bevel"
     d="m 4378.6855,3994.1459 c -24.8271,-3.6717 -42.2186,-16.5881 -50.4762,-37.4879 -3.0207,-7.6454 -3.6628,-11.6588 -3.671,-22.9437 -0.01,-10.5526 0.4223,-13.9181 2.6172,-20.4864 5.9466,-17.7953 19.5573,-31.2172 37.8329,-37.3081 7.4726,-2.4905 11.4269,-3.0497 21.5188,-3.0434 17.63,0.011 27.7778,2.6865 39.6204,10.4457 8.107,5.3117 16.8276,15.8437 20.5779,24.8525 3.5626,8.5576 4.3327,12.2826 4.594,22.2186 0.3711,14.1162 -1.2585,22.271 -6.4649,32.3516 -5.5464,10.7387 -13.6415,18.7413 -24.6068,24.3254 -9.9641,5.0741 -17.6022,6.8508 -30.5919,7.1157 -5.1623,0.1053 -10.09,0.087 -10.9504,-0.04 z m 21.9184,-22.5736 c 6.1148,-2.168 15.4294,-10.8707 18.629,-17.4052 2.6528,-5.4177 3.186,-8.9322 3.2217,-21.235 0.037,-12.7322 -0.4925,-15.4563 -4.2527,-21.8811 -2.9806,-5.0926 -9.5951,-11.4732 -14.2855,-13.7801 -8.1985,-4.0324 -21.3063,-4.3941 -29.8807,-0.8245 -11.9943,4.9932 -18.6409,14.0218 -20.6705,28.0783 -0.8935,6.1882 -0.3731,17.929 1.03,23.2384 3.3849,12.8086 12.2984,21.8737 24.1468,24.5575 5.0634,1.1469 17.9494,0.7098 22.0619,-0.7483 z"
     id="path2655" />
  <path
     style="fill:#ffffff;fill-rule:evenodd;stroke:#c7c7c7;stroke-width:2.95624;stroke-linecap:round;stroke-linejoin:bevel"
     d="m 4504.3287,3989.9003 c -2.3803,-5.6637 -24.5391,-65.3544 -36.7935,-99.1132 -2.8445,-7.8361 -5.0374,-14.465 -4.8731,-14.7309 0.1714,-0.2773 6.1187,-0.4788 13.956,-0.4726 l 13.6572,0.011 15.8533,44.4428 c 8.7193,24.4435 16.1356,45.0055 16.4807,45.6934 0.5922,1.1804 0.7207,1.0065 2.2859,-3.0923 1.3784,-3.6096 13.0299,-36.7914 27.5511,-78.4613 l 3.0892,-8.8646 12.3647,0.046 c 8.1131,0.03 12.5586,0.24 12.9288,0.6102 0.4047,0.4047 -3.0034,10.3457 -12.0512,35.1518 -6.9385,19.0231 -16.3971,44.9708 -21.0193,57.6615 l -8.4038,23.0741 h -17.1021 -17.1021 z"
     id="path2657" />
  <path
     style="fill:#ffffff;fill-rule:evenodd;stroke:#c7c7c7;stroke-width:2.95624;stroke-linecap:round;stroke-linejoin:bevel"
     d="m 4644.6238,3994.4237 c -20.2673,-1.64 -37.155,-13.7591 -45.2422,-32.467 -3.7386,-8.6485 -4.6431,-13.25 -4.9418,-25.1402 -0.3011,-11.9846 0.4133,-18.1685 2.9861,-25.8477 6.3343,-18.9067 19.7928,-31.874 38.5025,-37.0973 3.4738,-0.9698 5.3452,-1.1157 14.1706,-1.1051 8.7278,0.01 10.7352,0.1687 14.1705,1.1173 9.0924,2.5107 16.0302,6.3199 23.3639,12.8279 2.1456,1.904 4.0815,3.4618 4.302,3.4618 0.2204,0 0.4008,-3.4024 0.4008,-7.561 v -7.561 h 13.2969 13.297 v 58.4022 58.4021 h -13.297 -13.2969 v -8.0824 c 0,-4.4454 -0.1417,-8.0825 -0.315,-8.0825 -0.1733,0 -2.3785,1.8522 -4.9005,4.116 -7.3637,6.6098 -12.4068,9.7092 -19.814,12.1772 -6.7068,2.2346 -14.6537,3.0893 -22.6829,2.4397 z m 21.3793,-22.1219 c 2.0076,-0.4201 5.6301,-1.7398 8.05,-2.9327 8.0101,-3.9487 13.465,-10.917 16.4817,-21.0543 1.8838,-6.3306 2.3984,-18.6385 1.0562,-25.2627 -3.0221,-14.9144 -11.5852,-24.5839 -24.8057,-28.0106 -4.5111,-1.1693 -15.1407,-1.1528 -19.7603,0.031 -10.7299,2.7489 -19.4933,12.0802 -23.096,24.5925 -1.0444,3.6275 -1.1928,5.3082 -1.1947,13.5281 0,8.1812 0.1519,9.9482 1.1972,13.7644 4.6513,16.9818 16.1724,25.958 33.4677,26.0748 2.7246,0.018 6.5963,-0.3102 8.6039,-0.7302 z"
     id="path2659" />
  <path
     style="fill:#ffffff;fill-rule:evenodd;stroke:#c7c7c7;stroke-width:2.95624;stroke-linecap:round;stroke-linejoin:bevel"
     d="m 4793.5017,3991.2876 c -17.0409,-1.6397 -26.9327,-8.9887 -30.4919,-22.6537 -1.2707,-4.8785 -1.8216,-19.1785 -1.8325,-47.5647 l -0.01,-26.2028 h -9.9075 -9.9075 v -9.9075 -9.9075 h 9.9075 9.9075 v -14.3398 -14.3398 h 13.8184 13.8183 v 14.3398 14.3398 h 13.0362 13.0362 v 9.9075 9.9075 h -13.0362 -13.0362 l 0.014,28.5493 c 0.018,38.3247 0.3487,41.1421 5.1444,43.8375 2.423,1.3618 8.3099,2.156 16.0911,2.171 l 4.8234,0.01 v 11.2112 11.2111 l -8.4735,-0.071 c -4.6605,-0.039 -10.466,-0.2627 -12.9012,-0.497 z"
     id="path2661" />
  <path
     style="fill:#ffffff;fill-rule:evenodd;stroke:#c7c7c7;stroke-width:2.95624;stroke-linecap:round;stroke-linejoin:bevel"
     d="m 4840.4273,3933.4536 v -58.4022 h 13.5577 13.5576 v 58.4022 58.4021 h -13.5576 -13.5577 z"
     id="path2663" />
  <path
     style="fill:#ffffff;fill-rule:evenodd;stroke:#c7c7c7;stroke-width:2.95624;stroke-linecap:round;stroke-linejoin:bevel"
     d="m 4850.5846,3856.2713 c -5.0985,-0.7213 -9.0952,-3.8176 -11.398,-8.8301 -1.7019,-3.7046 -1.5395,-9.8487 0.3561,-13.4717 3.3053,-6.3171 8.0429,-8.8571 15.4592,-8.2884 7.116,0.5458 9.7614,2.1461 13.0506,7.895 2.4908,4.3535 2.9884,7.0129 1.9366,10.3497 -1.1745,3.7259 -4.6128,8.9693 -6.7379,10.2754 -3.0317,1.8632 -8.1805,2.7047 -12.6666,2.0701 z"
     id="path2665" />
  <path
     style="fill:#ffffff;fill-rule:evenodd;stroke:#c7c7c7;stroke-width:2.95624;stroke-linecap:round;stroke-linejoin:bevel"
     d="m 4910.298,3942.4485 c 0,-0.2151 -0.4585,-4.9668 -1.0148,-10.5593 -2.4428,-24.5561 -3.6145,-47.7022 -4.032,-79.6511 l -0.3288,-25.1598 h 13.9006 13.9006 v 18.6417 c 0,19.6079 -0.531,35.9249 -1.8324,56.7074 -0.853,13.6211 -2.6959,36.0064 -3.1874,38.7175 l -0.3073,1.6947 h -8.5458 c -4.7003,0 -8.5474,-0.176 -8.5492,-0.3911 z"
     id="path2667" />
  <path
     style="fill:#ffffff;fill-rule:evenodd;stroke:#c7c7c7;stroke-width:2.95624;stroke-linecap:round;stroke-linejoin:bevel"
     d="m 4914.4584,3994.2813 c -13.7077,-2.9786 -18.5355,-20.1452 -8.511,-30.2634 3.3751,-3.4066 5.7988,-4.2312 12.4363,-4.2312 4.752,0 6.1385,0.1891 8.0825,1.1025 3.2755,1.5391 6.1183,4.5664 8.0234,8.5442 1.4237,2.9725 1.6234,3.9347 1.6234,7.8218 0,3.7912 -0.2097,4.8592 -1.4495,7.3839 -1.6535,3.367 -4.4176,6.0834 -8.077,7.9378 -2.2702,1.1504 -3.6846,1.5321 -7.942,2.1435 -0.717,0.103 -2.6007,-0.095 -4.1861,-0.4391 z"
     id="path2669" />
     
  </a>
</svg>
