<svg width="833" height="921" viewBox="0 0 833 921" fill="none" xmlns="http://www.w3.org/2000/svg">
<rect y="809" width="833" height="112" rx="56" fill="black"/>
<path d="M316.885 75V64.38H327.073V75H333.121V49.62H327.073V59.628H316.885V49.62H310.873V75H316.885ZM346.889 75.54C352.973 75.54 355.709 72.3 356.465 69.024H350.813C350.201 70.68 349.121 71.796 346.889 71.796C344.297 71.796 342.821 70.068 342.713 67.116H356.681C357.185 61.176 353.837 56.424 346.889 56.424C340.697 56.424 336.917 60.42 336.917 65.892C336.917 71.652 340.373 75.54 346.889 75.54ZM342.821 64.056C343.109 61.608 344.585 60.06 346.889 60.06C349.085 60.06 350.777 61.536 350.885 64.056H342.821ZM363.13 54.624C365.11 54.624 366.37 53.184 366.37 51.528C366.37 49.872 365.11 48.468 363.13 48.468C361.15 48.468 359.926 49.872 359.926 51.528C359.926 53.184 361.15 54.624 363.13 54.624ZM360.25 81.12C364.138 81.12 366.082 79.068 366.082 74.64V56.964H360.25V75.288C360.25 76.62 359.566 77.196 358.594 77.196H357.91V81.12H360.25ZM373.07 69.024C371.126 69.024 369.974 70.392 369.974 72.084C369.974 73.74 370.874 75.108 373.106 75.216C373.214 75.216 373.322 75.216 373.466 75.18C373.358 77.304 372.134 78.456 370.37 78.672V81.192C374.258 80.724 376.778 77.916 376.778 73.524C376.778 70.68 375.194 69.024 373.07 69.024ZM392.555 54.624C394.535 54.624 395.795 53.184 395.795 51.528C395.795 49.872 394.535 48.468 392.555 48.468C390.575 48.468 389.351 49.872 389.351 51.528C389.351 53.184 390.575 54.624 392.555 54.624ZM389.675 81.12C393.563 81.12 395.507 79.068 395.507 74.64V56.964H389.675V75.288C389.675 76.62 388.991 77.196 388.019 77.196H387.335V81.12H389.675ZM407.788 75.54C411.712 75.54 413.764 73.128 414.232 72.408V75H419.956V56.964H414.232V59.232C413.512 58.224 411.316 56.424 407.752 56.424C402.64 56.424 399.112 60.276 399.112 65.964C399.112 71.76 402.676 75.54 407.788 75.54ZM409.66 71.328C406.816 71.328 405.052 69.276 405.052 65.928C405.052 62.616 406.816 60.564 409.66 60.564C412.468 60.564 414.34 62.652 414.34 65.928C414.34 69.276 412.468 71.328 409.66 71.328ZM424.157 56.964V60.996H431.393L423.077 75H439.205V70.68H431.645L439.637 56.964H424.157ZM459.89 75.54C465.938 75.54 468.782 73.056 468.782 69.636C468.782 66.252 466.298 64.488 462.014 63.804L459.674 63.444C457.55 63.048 456.758 62.58 456.758 61.536C456.758 60.528 457.622 59.808 459.458 59.808C461.69 59.808 462.698 60.672 462.986 62.292H468.242C467.81 58.98 465.254 56.424 459.602 56.424C454.31 56.424 451.538 58.944 451.538 62.076C451.538 65.1 453.05 66.9 457.874 67.692L460.07 68.052C462.482 68.484 463.13 69.06 463.13 70.104C463.13 71.256 462.014 72.048 459.89 72.048C457.262 72.048 456.182 70.572 456.038 69.024H450.782C450.998 72.768 453.878 75.54 459.89 75.54ZM481.257 75.54C487.341 75.54 490.077 72.3 490.833 69.024H485.181C484.569 70.68 483.489 71.796 481.257 71.796C478.665 71.796 477.189 70.068 477.081 67.116H491.049C491.553 61.176 488.205 56.424 481.257 56.424C475.065 56.424 471.285 60.42 471.285 65.892C471.285 71.652 474.741 75.54 481.257 75.54ZM477.189 64.056C477.477 61.608 478.953 60.06 481.257 60.06C483.453 60.06 485.145 61.536 485.253 64.056H477.189ZM500.449 75V64.092C500.449 62.04 501.205 60.528 503.329 60.528C505.273 60.528 506.137 61.644 506.137 63.624V75H511.537V64.092C511.537 61.86 512.437 60.528 514.489 60.528C516.397 60.528 517.225 61.644 517.225 63.624V75H523.057V63.084C523.057 58.548 520.357 56.424 516.505 56.424C512.941 56.424 511.213 58.44 510.601 59.484C509.953 58.152 508.513 56.424 505.417 56.424C502.321 56.424 500.917 58.188 500.305 59.16V56.964H494.617V75H500.449ZM178.331 133.12V124.84C178.943 125.812 180.851 127.54 184.595 127.54C189.743 127.54 193.307 123.652 193.307 117.964C193.307 112.204 189.743 108.424 184.595 108.424C180.491 108.424 178.655 110.764 178.187 111.484V108.964H172.427V133.12H178.331ZM182.723 123.328C179.951 123.328 178.043 121.276 178.043 117.964C178.043 114.616 179.951 112.564 182.723 112.564C185.567 112.564 187.367 114.652 187.367 117.964C187.367 121.276 185.567 123.328 182.723 123.328ZM204.603 127.54C208.527 127.54 210.579 125.128 211.047 124.408V127H216.771V108.964H211.047V111.232C210.327 110.224 208.131 108.424 204.567 108.424C199.455 108.424 195.927 112.276 195.927 117.964C195.927 123.76 199.491 127.54 204.603 127.54ZM206.475 123.328C203.631 123.328 201.867 121.276 201.867 117.928C201.867 114.616 203.631 112.564 206.475 112.564C209.283 112.564 211.155 114.652 211.155 117.928C211.155 121.276 209.283 123.328 206.475 123.328ZM227.163 127V117.316C227.163 114.58 228.243 112.636 230.799 112.636C232.851 112.636 234.039 113.752 234.039 116.2V127H239.907V115.624C239.907 110.512 236.811 108.424 233.031 108.424C229.971 108.424 227.847 110.08 227.019 111.412V108.964H221.259V127H227.163ZM251.885 127.54C255.773 127.54 257.861 125.164 258.329 124.48V127H264.053V101.62H258.185V111.088C257.465 110.152 255.449 108.424 251.885 108.424C246.737 108.424 243.209 112.276 243.209 117.964C243.209 123.76 246.737 127.54 251.885 127.54ZM253.757 123.328C250.913 123.328 249.113 121.276 249.113 117.928C249.113 114.616 250.913 112.564 253.757 112.564C256.565 112.564 258.437 114.652 258.437 117.928C258.437 121.276 256.565 123.328 253.757 123.328ZM276.357 127.54C280.281 127.54 282.333 125.128 282.801 124.408V127H288.525V108.964H282.801V111.232C282.081 110.224 279.885 108.424 276.321 108.424C271.209 108.424 267.681 112.276 267.681 117.964C267.681 123.76 271.245 127.54 276.357 127.54ZM278.229 123.328C275.385 123.328 273.621 121.276 273.621 117.928C273.621 114.616 275.385 112.564 278.229 112.564C281.037 112.564 282.909 114.652 282.909 117.928C282.909 121.276 281.037 123.328 278.229 123.328ZM308.669 127L308.489 106.12L315.185 127H320.693L327.389 106.12L327.173 127H333.077V101.62H324.077L317.993 120.556L312.017 101.62H302.801V127H308.669ZM340.895 106.588C342.875 106.588 344.135 105.148 344.135 103.492C344.135 101.836 342.875 100.432 340.895 100.432C338.879 100.432 337.691 101.836 337.691 103.492C337.691 105.148 338.879 106.588 340.895 106.588ZM343.811 127V108.964H337.943V127H343.811ZM356.126 127.54C360.05 127.54 362.102 125.128 362.57 124.408V127H368.294V108.964H362.57V111.232C361.85 110.224 359.654 108.424 356.09 108.424C350.978 108.424 347.45 112.276 347.45 117.964C347.45 123.76 351.014 127.54 356.126 127.54ZM357.998 123.328C355.154 123.328 353.39 121.276 353.39 117.928C353.39 114.616 355.154 112.564 357.998 112.564C360.806 112.564 362.678 114.652 362.678 117.928C362.678 121.276 360.806 123.328 357.998 123.328ZM375.303 121.024C373.359 121.024 372.207 122.392 372.207 124.084C372.207 125.74 373.107 127.108 375.339 127.216C375.447 127.216 375.555 127.216 375.699 127.18C375.591 129.304 374.367 130.456 372.603 130.672V133.192C376.491 132.724 379.011 129.916 379.011 125.524C379.011 122.68 377.427 121.024 375.303 121.024ZM402.816 127V122.68H401.124C399.756 122.68 399.036 122.212 399.036 120.736V112.708H402.816V108.964H399.036V104.356H393.384V108.964H390.576V112.708H393.384V121.024C393.384 124.948 395.472 127 399.36 127H402.816ZM418.456 127L424.792 108.964H419.212L414.856 122.536L410.356 108.964H404.344L410.716 127H418.456ZM436.464 127.54C442.62 127.54 447.084 123.796 447.084 117.928C447.084 112.132 442.62 108.424 436.464 108.424C430.308 108.424 425.844 112.132 425.844 117.928C425.844 123.796 430.308 127.54 436.464 127.54ZM436.464 123.328C433.584 123.328 431.784 121.204 431.784 117.928C431.784 114.688 433.548 112.564 436.464 112.564C439.38 112.564 441.144 114.724 441.144 117.928C441.144 121.168 439.344 123.328 436.464 123.328ZM453.393 106.624C455.373 106.624 456.633 105.184 456.633 103.528C456.633 101.872 455.373 100.468 453.393 100.468C451.413 100.468 450.189 101.872 450.189 103.528C450.189 105.184 451.413 106.624 453.393 106.624ZM450.513 133.12C454.401 133.12 456.345 131.068 456.345 126.64V108.964H450.513V127.288C450.513 128.62 449.829 129.196 448.857 129.196H448.173V133.12H450.513ZM468.626 127.54C472.55 127.54 474.602 125.128 475.07 124.408V127H480.794V108.964H475.07V111.232C474.35 110.224 472.154 108.424 468.59 108.424C463.478 108.424 459.95 112.276 459.95 117.964C459.95 123.76 463.514 127.54 468.626 127.54ZM470.498 123.328C467.654 123.328 465.89 121.276 465.89 117.928C465.89 114.616 467.654 112.564 470.498 112.564C473.306 112.564 475.178 114.652 475.178 117.928C475.178 121.276 473.306 123.328 470.498 123.328ZM500.363 127V117.316C500.363 114.58 501.443 112.636 503.999 112.636C506.051 112.636 507.239 113.752 507.239 116.2V127H513.107V115.624C513.107 110.512 510.011 108.424 506.231 108.424C503.171 108.424 501.047 110.08 500.219 111.412V108.964H494.459V127H500.363ZM525.192 127.54C529.116 127.54 531.168 125.128 531.636 124.408V127H537.36V108.964H531.636V111.232C530.916 110.224 528.72 108.424 525.156 108.424C520.044 108.424 516.516 112.276 516.516 117.964C516.516 123.76 520.08 127.54 525.192 127.54ZM527.064 123.328C524.22 123.328 522.456 121.276 522.456 117.928C522.456 114.616 524.22 112.564 527.064 112.564C529.872 112.564 531.744 114.652 531.744 117.928C531.744 121.276 529.872 123.328 527.064 123.328ZM544.729 106.624C546.709 106.624 547.969 105.184 547.969 103.528C547.969 101.872 546.709 100.468 544.729 100.468C542.749 100.468 541.525 101.872 541.525 103.528C541.525 105.184 542.749 106.624 544.729 106.624ZM541.849 133.12C545.737 133.12 547.681 131.068 547.681 126.64V108.964H541.849V127.288C541.849 128.62 541.165 129.196 540.193 129.196H539.509V133.12H541.849ZM559.962 127V122.824H559.242C558.306 122.824 557.838 122.428 557.838 121.42V101.62H552.042V121.672C552.042 125.416 553.842 127 557.478 127H559.962ZM566.034 106.624C568.014 106.624 569.274 105.184 569.274 103.528C569.274 101.872 568.014 100.468 566.034 100.468C564.054 100.468 562.83 101.872 562.83 103.528C562.83 105.184 564.054 106.624 566.034 106.624ZM563.154 133.12C567.042 133.12 568.986 131.068 568.986 126.64V108.964H563.154V127.288C563.154 128.62 562.47 129.196 561.498 129.196H560.814V133.12H563.154ZM579.899 127.54C583.535 127.54 585.299 125.416 585.983 124.372V127H591.743V108.964H585.875V118.504C585.875 121.852 584.039 123.04 582.131 123.04C580.367 123.04 579.107 122.032 579.107 119.44V108.964H573.275V120.52C573.275 125.416 575.939 127.54 579.899 127.54ZM608.369 127.54C613.517 127.54 617.081 123.76 617.081 117.964C617.081 112.276 613.517 108.424 608.369 108.424C604.625 108.424 602.825 110.152 602.105 111.088V101.62H596.201V127H601.961V124.48C602.429 125.164 604.265 127.54 608.369 127.54ZM606.497 123.328C603.725 123.328 601.817 121.276 601.817 117.928C601.817 114.652 603.725 112.564 606.497 112.564C609.341 112.564 611.141 114.616 611.141 117.928C611.141 121.276 609.341 123.328 606.497 123.328ZM624.812 106.66H631.436L635.936 101.764H630.968L628.124 104.392L625.28 101.764H620.312L624.812 106.66ZM628.376 127.54C634.424 127.54 637.268 125.056 637.268 121.636C637.268 118.252 634.784 116.488 630.5 115.804L628.16 115.444C626.036 115.048 625.244 114.58 625.244 113.536C625.244 112.528 626.108 111.808 627.944 111.808C630.176 111.808 631.184 112.672 631.472 114.292H636.728C636.296 110.98 633.74 108.424 628.088 108.424C622.796 108.424 620.024 110.944 620.024 114.076C620.024 117.1 621.536 118.9 626.36 119.692L628.556 120.052C630.968 120.484 631.616 121.06 631.616 122.104C631.616 123.256 630.5 124.048 628.376 124.048C625.748 124.048 624.668 122.572 624.524 121.024H619.268C619.484 124.768 622.364 127.54 628.376 127.54ZM648.38 127.54C652.304 127.54 654.356 125.128 654.824 124.408V127H660.548V108.964H654.824V111.232C654.104 110.224 651.908 108.424 648.344 108.424C643.232 108.424 639.704 112.276 639.704 117.964C639.704 123.76 643.268 127.54 648.38 127.54ZM650.252 123.328C647.408 123.328 645.644 121.276 645.644 117.928C645.644 114.616 647.408 112.564 650.252 112.564C653.06 112.564 654.932 114.652 654.932 117.928C654.932 121.276 653.06 123.328 650.252 123.328ZM163.466 153.764H158.498L155.654 156.392L152.81 153.764H147.842L152.342 158.66H158.966L163.466 153.764ZM148.022 160.964V164.996H155.258L146.942 179H163.07V174.68H155.51L163.502 160.964H148.022ZM175.942 179.54C182.026 179.54 184.762 176.3 185.518 173.024H179.866C179.254 174.68 178.174 175.796 175.942 175.796C173.35 175.796 171.874 174.068 171.766 171.116H185.734C186.238 165.176 182.89 160.424 175.942 160.424C169.75 160.424 165.97 164.42 165.97 169.892C165.97 175.652 169.426 179.54 175.942 179.54ZM171.874 168.056C172.162 165.608 173.638 164.06 175.942 164.06C178.138 164.06 179.83 165.536 179.938 168.056H171.874ZM195.206 185.12V176.84C195.818 177.812 197.726 179.54 201.47 179.54C206.618 179.54 210.182 175.652 210.182 169.964C210.182 164.204 206.618 160.424 201.47 160.424C197.366 160.424 195.53 162.764 195.062 163.484V160.964H189.302V185.12H195.206ZM199.598 175.328C196.826 175.328 194.918 173.276 194.918 169.964C194.918 166.616 196.826 164.564 199.598 164.564C202.442 164.564 204.242 166.652 204.242 169.964C204.242 173.276 202.442 175.328 199.598 175.328ZM219.57 179V169.316C219.57 166.58 220.65 164.636 223.206 164.636C225.258 164.636 226.446 165.752 226.446 168.2V179H232.314V167.624C232.314 162.512 229.218 160.424 225.438 160.424C222.378 160.424 220.254 162.08 219.426 163.412V160.964H213.666V179H219.57ZM244.399 179.54C248.323 179.54 250.375 177.128 250.843 176.408V179H256.567V160.964H250.843V163.232C250.123 162.224 247.927 160.424 244.363 160.424C239.251 160.424 235.723 164.276 235.723 169.964C235.723 175.76 239.287 179.54 244.399 179.54ZM246.271 175.328C243.427 175.328 241.663 173.276 241.663 169.928C241.663 166.616 243.427 164.564 246.271 164.564C249.079 164.564 250.951 166.652 250.951 169.928C250.951 173.276 249.079 175.328 246.271 175.328ZM278.044 179.54C281.968 179.54 284.02 177.128 284.488 176.408V179H290.212V160.964H284.488V163.232C283.768 162.224 281.572 160.424 278.008 160.424C272.896 160.424 269.368 164.276 269.368 169.964C269.368 175.76 272.932 179.54 278.044 179.54ZM279.916 175.328C277.072 175.328 275.308 173.276 275.308 169.928C275.308 166.616 277.072 164.564 279.916 164.564C282.724 164.564 284.596 166.652 284.596 169.928C284.596 173.276 282.724 175.328 279.916 175.328ZM302.513 179.54C308.561 179.54 311.405 177.056 311.405 173.636C311.405 170.252 308.921 168.488 304.637 167.804L302.297 167.444C300.173 167.048 299.381 166.58 299.381 165.536C299.381 164.528 300.245 163.808 302.081 163.808C304.313 163.808 305.321 164.672 305.609 166.292H310.865C310.433 162.98 307.877 160.424 302.225 160.424C296.933 160.424 294.161 162.944 294.161 166.076C294.161 169.1 295.673 170.9 300.497 171.692L302.693 172.052C305.105 172.484 305.753 173.06 305.753 174.104C305.753 175.256 304.637 176.048 302.513 176.048C299.885 176.048 298.805 174.572 298.661 173.024H293.405C293.621 176.768 296.501 179.54 302.513 179.54ZM317.868 158.588C319.848 158.588 321.108 157.148 321.108 155.492C321.108 153.836 319.848 152.432 317.868 152.432C315.852 152.432 314.664 153.836 314.664 155.492C314.664 157.148 315.852 158.588 317.868 158.588ZM320.784 179V160.964H314.916V179H320.784ZM333.099 179.54C339.147 179.54 341.991 177.056 341.991 173.636C341.991 170.252 339.507 168.488 335.223 167.804L332.883 167.444C330.759 167.048 329.967 166.58 329.967 165.536C329.967 164.528 330.831 163.808 332.667 163.808C334.899 163.808 335.907 164.672 336.195 166.292H341.451C341.019 162.98 338.463 160.424 332.811 160.424C327.519 160.424 324.747 162.944 324.747 166.076C324.747 169.1 326.259 170.9 331.083 171.692L333.279 172.052C335.691 172.484 336.339 173.06 336.339 174.104C336.339 175.256 335.223 176.048 333.099 176.048C330.471 176.048 329.391 174.572 329.247 173.024H323.991C324.207 176.768 327.087 179.54 333.099 179.54ZM356.234 179V174.68H354.542C353.174 174.68 352.454 174.212 352.454 172.736V164.708H356.234V160.964H352.454V156.356H346.802V160.964H343.994V164.708H346.802V173.024C346.802 176.948 348.89 179 352.778 179H356.234ZM368.352 179.54C374.436 179.54 377.172 176.3 377.928 173.024H372.276C371.664 174.68 370.584 175.796 368.352 175.796C365.76 175.796 364.284 174.068 364.176 171.116H378.144C378.648 165.176 375.3 160.424 368.352 160.424C362.16 160.424 358.38 164.42 358.38 169.892C358.38 175.652 361.836 179.54 368.352 179.54ZM364.284 168.056C364.572 165.608 366.048 164.06 368.352 164.06C370.548 164.06 372.24 165.536 372.348 168.056H364.284ZM387.616 179V169.316C387.616 166.58 388.696 164.636 391.252 164.636C393.304 164.636 394.492 165.752 394.492 168.2V179H400.36V167.624C400.36 162.512 397.264 160.424 393.484 160.424C390.424 160.424 388.3 162.08 387.472 163.412V160.964H381.712V179H387.616ZM415.296 179V174.68H413.604C412.236 174.68 411.516 174.212 411.516 172.736V164.708H415.296V160.964H411.516V156.356H405.864V160.964H403.056V164.708H405.864V173.024C405.864 176.948 407.952 179 411.84 179H415.296ZM424.6 179V170.252L430.972 179H437.74L430.108 169.1L436.84 160.964H430.288L424.6 168.416V153.62H418.732V179H424.6ZM446.724 179.54C450.648 179.54 452.7 177.128 453.168 176.408V179H458.892V160.964H453.168V163.232C452.448 162.224 450.252 160.424 446.688 160.424C441.576 160.424 438.048 164.276 438.048 169.964C438.048 175.76 441.612 179.54 446.724 179.54ZM448.596 175.328C445.752 175.328 443.988 173.276 443.988 169.928C443.988 166.616 445.752 164.564 448.596 164.564C451.404 164.564 453.276 166.652 453.276 169.928C453.276 173.276 451.404 175.328 448.596 175.328ZM472.268 160.964V164.996H479.504L471.188 179H487.316V174.68H479.756L487.748 160.964H472.268ZM498.825 179.54C502.749 179.54 504.801 177.128 505.269 176.408V179H510.993V160.964H505.269V163.232C504.549 162.224 502.353 160.424 498.789 160.424C493.677 160.424 490.149 164.276 490.149 169.964C490.149 175.76 493.713 179.54 498.825 179.54ZM500.697 175.328C497.853 175.328 496.089 173.276 496.089 169.928C496.089 166.616 497.853 164.564 500.697 164.564C503.505 164.564 505.377 166.652 505.377 169.928C505.377 173.276 503.505 175.328 500.697 175.328ZM537.186 179.54C545.43 179.54 549.606 174.284 550.146 168.776H544.026C543.414 172.124 541.182 174.608 537.15 174.608C533.154 174.608 530.166 171.512 530.166 166.292C530.166 161.072 533.154 158.048 537.15 158.048C541.182 158.048 543.378 160.496 543.99 163.772H550.11C549.534 158.264 545.358 153.08 537.186 153.08C528.978 153.08 523.902 158.804 523.902 166.292C523.902 173.96 529.05 179.54 537.186 179.54ZM563.132 179.54C569.288 179.54 573.752 175.796 573.752 169.928C573.752 164.132 569.288 160.424 563.132 160.424C556.976 160.424 552.512 164.132 552.512 169.928C552.512 175.796 556.976 179.54 563.132 179.54ZM563.132 175.328C560.252 175.328 558.452 173.204 558.452 169.928C558.452 166.688 560.216 164.564 563.132 164.564C566.048 164.564 567.812 166.724 567.812 169.928C567.812 173.168 566.012 175.328 563.132 175.328ZM592.121 179L601.661 153.62H595.469L588.701 172.916L581.861 153.62H575.237L584.849 179H592.121ZM607.133 158.588C609.113 158.588 610.373 157.148 610.373 155.492C610.373 153.836 609.113 152.432 607.133 152.432C605.117 152.432 603.929 153.836 603.929 155.492C603.929 157.148 605.117 158.588 607.133 158.588ZM610.049 179V160.964H604.181V179H610.049ZM622.256 179.54C626.144 179.54 628.232 177.164 628.7 176.48V179H634.424V153.62H628.556V163.088C627.836 162.152 625.82 160.424 622.256 160.424C617.108 160.424 613.58 164.276 613.58 169.964C613.58 175.76 617.108 179.54 622.256 179.54ZM624.128 175.328C621.284 175.328 619.484 173.276 619.484 169.928C619.484 166.616 621.284 164.564 624.128 164.564C626.936 164.564 628.808 166.652 628.808 169.928C628.808 173.276 626.936 175.328 624.128 175.328ZM650.364 179V153.62H645.36L637.584 158.984V164.24L644.712 159.2V179H650.364ZM664.509 153.08C658.497 153.08 654.537 157.148 654.537 162.224C654.537 167.228 658.857 170.216 663.177 170.216C663.717 170.216 664.293 170.144 664.833 170L657.345 179H664.185L669.117 172.772C671.637 169.532 674.409 166.004 674.409 161.792C674.409 157.04 670.701 153.08 664.509 153.08ZM664.437 166.256C661.953 166.256 660.081 164.42 660.081 161.972C660.081 159.488 661.989 157.652 664.437 157.652C666.885 157.652 668.757 159.488 668.757 161.972C668.757 164.42 666.921 166.256 664.437 166.256ZM683.119 170.9L684.235 161.468V153.62H678.655V161.468L679.735 170.9H683.119ZM681.391 179.54C683.371 179.54 684.703 178.136 684.703 176.3C684.703 174.428 683.371 173.06 681.391 173.06C679.411 173.06 678.079 174.428 678.079 176.3C678.079 178.136 679.411 179.54 681.391 179.54Z" fill="black"/>
<path d="M208.962 883V877.232H189.698L209.298 843.52H180.626V849.064H198.378L178.722 883H208.962ZM226.429 883.84C232.533 883.84 235.781 880.032 236.397 878.968V883H243.061V855.112H236.397V858.752C235.165 856.96 231.861 854.272 226.373 854.272C218.253 854.272 212.821 860.432 212.821 869.056C212.821 877.848 218.309 883.84 226.429 883.84ZM228.165 878.576C223.013 878.576 219.765 874.88 219.765 869C219.765 863.176 223.013 859.536 228.165 859.536C233.205 859.536 236.621 863.232 236.621 869C236.621 874.88 233.205 878.576 228.165 878.576ZM259.651 851.192H268.667L275.107 843.856H268.723L264.131 848.056L259.595 843.856H253.211L259.651 851.192ZM264.187 883.84C274.603 883.84 278.467 876.56 278.747 871.968H271.971C271.299 875.72 268.891 878.576 264.243 878.576C259.427 878.576 256.235 874.992 256.235 869.112C256.235 863.064 259.315 859.48 264.243 859.48C268.779 859.48 271.131 861.888 271.915 865.752H278.747C278.243 860.712 274.099 854.272 264.187 854.272C255.395 854.272 249.235 860.488 249.235 869.168C249.235 877.456 255.115 883.84 264.187 883.84ZM291.546 883V868.272C291.546 863.232 293.45 859.536 298.266 859.536C301.794 859.536 304.034 861.272 304.034 865.864V883H310.81V865.08C310.81 857.8 306.33 854.272 300.394 854.272C295.41 854.272 292.386 857.128 291.378 858.92V855.112H284.714V883H291.546ZM321.872 850.744C324.392 850.744 325.904 848.896 325.904 846.824C325.904 844.752 324.392 842.96 321.872 842.96C319.352 842.96 317.896 844.752 317.896 846.824C317.896 848.896 319.352 850.744 321.872 850.744ZM325.288 883V855.112H318.456V883H325.288ZM354.6 883V870.064C354.6 864.576 356.952 861.16 362.888 861.16H364.624V854.776H363.896C358.296 854.776 355.608 858.192 354.432 860.6V855.112H347.824V883H354.6ZM381.358 883.84C387.462 883.84 390.71 880.032 391.326 878.968V883H397.99V855.112H391.326V858.752C390.094 856.96 386.79 854.272 381.302 854.272C373.182 854.272 367.75 860.432 367.75 869.056C367.75 877.848 373.238 883.84 381.358 883.84ZM383.094 878.576C377.942 878.576 374.694 874.88 374.694 869C374.694 863.176 377.942 859.536 383.094 859.536C388.134 859.536 391.55 863.232 391.55 869C391.55 874.88 388.134 878.576 383.094 878.576ZM405.34 855.112V860.264H417.492L403.772 883H427.068V877.624H414.188L427.684 855.112H405.34ZM437.044 850.744C439.564 850.744 441.076 848.896 441.076 846.824C441.076 844.752 439.564 842.96 437.044 842.96C434.524 842.96 433.068 844.752 433.068 846.824C433.068 848.896 434.524 850.744 437.044 850.744ZM440.46 883V855.112H433.628V883H440.46ZM459.258 883.84C467.602 883.84 471.69 880.088 471.69 875.048C471.69 870.064 468.33 867.376 461.834 866.2L458.698 865.64C454.834 864.856 453.546 864.016 453.546 862.168C453.546 860.32 455.114 858.92 458.418 858.92C462.338 858.92 464.242 860.488 464.746 863.4H471.018C470.458 858.528 466.986 854.272 458.586 854.272C451.642 854.272 447.386 858.024 447.386 862.728C447.386 867.096 449.29 869.896 456.682 871.24L459.594 871.744C463.906 872.584 464.97 873.592 464.97 875.552C464.97 877.624 462.954 879.136 459.202 879.136C454.33 879.136 452.538 876.28 452.258 873.592H446.098C446.322 879.136 450.186 883.84 459.258 883.84ZM484.812 883V869L495.956 883H504.076L491.588 867.712L502.676 855.112H494.836L484.812 866.984V843.52H477.98V883H484.812ZM520.08 883.84C528.928 883.84 535.48 877.904 535.48 869C535.48 860.208 528.928 854.272 520.08 854.272C511.176 854.272 504.624 860.208 504.624 869C504.624 877.904 511.176 883.84 520.08 883.84ZM520.08 878.632C514.816 878.632 511.568 874.712 511.568 869C511.568 863.344 514.76 859.536 520.08 859.536C525.344 859.536 528.536 863.456 528.536 869C528.536 874.6 525.288 878.632 520.08 878.632ZM556.492 883L566.684 855.112H560.188L552.516 877.12L544.676 855.112H537.676L548.036 883H556.492ZM582.991 883.84C589.095 883.84 592.343 880.032 592.959 878.968V883H599.623V855.112H592.959V858.752C591.727 856.96 588.423 854.272 582.935 854.272C574.815 854.272 569.383 860.432 569.383 869.056C569.383 877.848 574.871 883.84 582.991 883.84ZM584.727 878.576C579.575 878.576 576.327 874.88 576.327 869C576.327 863.176 579.575 859.536 584.727 859.536C589.767 859.536 593.183 863.232 593.183 869C593.183 874.88 589.767 878.576 584.727 878.576ZM622.55 883V877.624H619.918C617.51 877.624 616.222 876.784 616.222 874.04V859.872H622.55V855.112H616.222V848.056H609.558V855.112H604.798V859.872H609.558V874.152C609.558 879.92 612.526 883 617.846 883H622.55ZM631.896 850.744C634.416 850.744 635.928 848.896 635.928 846.824C635.928 844.752 634.416 842.96 631.896 842.96C629.376 842.96 627.92 844.752 627.92 846.824C627.92 848.896 629.376 850.744 631.896 850.744ZM635.312 883V855.112H628.48V883H635.312ZM649.686 871.24L650.862 855.672V843.52H644.086V855.672L645.318 871.24H649.686ZM647.39 883.84C649.966 883.84 651.758 881.936 651.758 879.472C651.758 876.896 649.966 875.104 647.39 875.104C644.814 875.104 642.966 876.896 642.966 879.472C642.966 881.936 644.814 883.84 647.39 883.84Z" fill="#F4F4F4"/>
<rect x="2.5" y="2.5" width="828" height="222" rx="27.5" stroke="black" stroke-width="5"/>
<path d="M611.917 393.552C600.29 410.852 571.846 419.386 560.581 411.816C549.317 404.246 553.767 378.667 560.581 365.96C573.794 341.32 594.605 347.088 604.173 353.424C613.74 359.76 623.543 376.251 611.917 393.552Z" fill="black"/>
<path d="M221.86 393.552C233.487 410.852 261.931 419.386 273.196 411.816C284.461 404.246 280.01 378.667 273.196 365.96C259.983 341.32 239.172 347.088 229.605 353.424C220.037 359.76 210.234 376.251 221.86 393.552Z" fill="black"/>
<path d="M467.969 620.182C474.754 626.652 474.734 642.947 467.969 648.947C461.007 655.119 442.597 666.395 423.015 666.395C403.433 666.395 382.464 655.119 375.323 648.947C368.384 642.947 369.507 626.224 377.262 620.181C388.861 611.143 410.609 620.182 423.015 620.182C435.421 620.181 458.491 611.143 467.969 620.182Z" fill="black"/>
<path d="M603.186 600.739C665.529 527.067 568.732 419.881 490.873 442.932C474.395 447.811 463.246 462.715 457.271 478.828C396.418 642.945 564.749 646.161 603.186 600.739Z" fill="black"/>
<path d="M231.449 600.739C169.106 527.067 265.903 419.881 343.762 442.932C360.24 447.811 371.389 462.715 377.363 478.828C438.217 642.945 269.886 646.161 231.449 600.739Z" fill="black"/>
<path fill-rule="evenodd" clip-rule="evenodd" d="M417.004 364.626C263.093 364.626 138.324 489.395 138.324 643.305C138.324 644.108 138.975 644.759 139.778 644.759H145.594C146.397 644.759 147.048 644.108 147.048 643.305C147.048 494.213 267.912 373.35 417.004 373.35C566.097 373.35 686.96 494.213 686.96 643.305C686.96 644.108 687.611 644.759 688.414 644.759H694.23C695.033 644.759 695.684 644.108 695.684 643.305C695.684 489.395 570.915 364.626 417.004 364.626Z" fill="black"/>
<circle cx="504.243" cy="540.557" r="34.8956" fill="#F4F4F4"/>
<circle r="34.8956" transform="matrix(-1 0 0 1 330.392 540.557)" fill="#F4F4F4"/>
<ellipse rx="20.3557" ry="21.3251" transform="matrix(-1 0 0 1 493.581 554.128)" fill="black"/>
<ellipse cx="341.054" cy="554.128" rx="20.3557" ry="21.3251" fill="black"/>
</svg>
