<svg width="80" height="148" viewBox="0 0 80 148" fill="none" xmlns="http://www.w3.org/2000/svg">
<path d="M12.178 22.2364C16.8 25.3209 19.0828 32.864 17.0537 35.8643C15.0245 38.8647 8.20419 37.687 4.82223 35.8643C-1.74442 32.3592 -0.222536 26.8351 1.46845 24.2834C3.15943 21.7597 7.55598 19.1519 12.178 22.2364Z" fill="black"/>
<path d="M12.178 125.82C16.8001 122.735 19.0829 115.192 17.0537 112.192C15.0245 109.191 8.20424 110.369 4.82228 112.192C-1.77255 115.697 -0.222479 121.221 1.4685 123.773C3.15948 126.296 7.55604 128.904 12.178 125.82Z" fill="black"/>
<path d="M72.6588 60.4562C74.3779 58.6616 78.7463 58.6616 80.3245 60.4562C81.9592 62.3069 84.9747 67.186 84.9747 72.4017C84.9747 77.6173 81.9592 83.1694 80.3245 85.0762C78.7181 86.9269 74.2652 86.6184 72.6588 84.5714C70.235 81.4869 72.6588 75.7105 72.6588 72.4297C72.6588 69.1209 70.235 62.9799 72.6588 60.4562Z" fill="black"/>
<path d="M67.4732 24.5638C47.9424 8.1038 19.5621 33.3967 25.255 54.0068C26.5514 58.6616 30.7507 61.8022 35.3164 63.4286C78.7464 79.2156 79.5637 34.7427 67.4732 24.5638Z" fill="black"/>
<path d="M67.4732 123.268C47.9424 139.728 19.5621 114.435 25.255 93.8249C26.5514 89.1701 30.7507 86.0295 35.3164 84.4032C78.7464 68.6161 79.5637 113.089 67.4732 123.268Z" fill="black"/>
<path fill-rule="evenodd" clip-rule="evenodd" d="M4.45593 74C4.45593 114.856 37.7683 148 78.8309 148C79.0564 148 79.2255 147.832 79.2255 147.607L79.2255 146.065C79.2255 145.841 79.0564 145.673 78.8309 145.673C39.0365 145.673 6.79512 113.566 6.79512 74C6.79512 34.4343 39.0647 2.32739 78.8309 2.32739C79.0564 2.32739 79.2255 2.15915 79.2255 1.93481L79.2255 0.39256C79.2255 0.16824 79.0564 -3.26089e-06 78.8309 -3.25103e-06C37.7683 -1.45613e-06 4.45593 33.1444 4.45593 74Z" fill="black"/>
<path d="M60.7092 50.8382C60.7092 45.7276 56.5453 41.5847 51.4088 41.5847C46.2723 41.5847 42.1084 45.7276 42.1084 50.8382C42.1084 55.9488 46.2723 60.0917 51.4088 60.0917C56.5453 60.0917 60.7092 55.9488 60.7092 50.8382Z" fill="white"/>
<path d="M60.7092 96.9936C60.7092 91.883 56.5453 87.7401 51.4088 87.7401C46.2723 87.7401 42.1084 91.883 42.1084 96.9936C42.1084 102.104 46.2723 106.247 51.4088 106.247C56.5453 106.247 60.7092 102.104 60.7092 96.9936Z" fill="white"/>
<path d="M57.0736 53.3899C57.0736 50.401 54.5247 47.978 51.3806 47.978C48.2364 47.978 45.6876 50.401 45.6876 53.3899C45.6876 56.3788 48.2364 58.8018 51.3806 58.8018C54.5247 58.8018 57.0736 56.3788 57.0736 53.3899Z" fill="black"/>
<path d="M57.0736 99.4892C57.0736 96.5003 54.5247 94.0773 51.3806 94.0773C48.2364 94.0773 45.6876 96.5003 45.6876 99.4892C45.6876 102.478 48.2364 104.901 51.3806 104.901C54.5247 104.901 57.0736 102.478 57.0736 99.4892Z" fill="black"/>
</svg>
