<svg width="529" height="455" viewBox="0 0 529 455" fill="none" xmlns="http://www.w3.org/2000/svg">
<path d="M449.677 54.3308C438.667 70.7138 411.732 78.7951 401.065 71.6266C390.398 64.458 394.612 40.2361 401.065 28.2026C413.576 4.86989 433.284 10.3319 442.343 16.3317C451.403 22.3315 460.687 37.9479 449.677 54.3308Z" fill="black"/>
<path d="M80.3135 54.3308C91.3232 70.7138 118.259 78.7951 128.926 71.6266C139.593 64.458 135.378 40.2361 128.925 28.2026C116.414 4.86989 96.7065 10.3319 87.6467 16.3317C78.587 22.3315 69.3037 37.9479 80.3135 54.3308Z" fill="black"/>
<path d="M313.365 268.938C319.791 275.065 319.772 290.496 313.365 296.177C306.774 302.022 289.34 312.699 270.797 312.699C252.254 312.699 232.396 302.022 225.635 296.177C219.064 290.496 220.128 274.66 227.471 268.938C238.455 260.379 259.049 268.938 270.797 268.938C282.544 268.938 304.39 260.379 313.365 268.938Z" fill="black"/>
<path d="M441.409 250.526C500.086 181.187 409.89 80.4942 336.4 100.708C319.83 105.265 308.647 120.246 302.755 136.39C246.505 290.51 405.113 293.418 441.409 250.526Z" fill="black"/>
<path d="M89.3931 250.526C30.7162 181.187 120.912 80.4942 194.403 100.708C210.973 105.265 222.156 120.246 228.048 136.39C284.297 290.51 125.689 293.418 89.3931 250.526Z" fill="black"/>
<path fill-rule="evenodd" clip-rule="evenodd" d="M265.105 26.9394C119.359 26.9394 1.20898 145.089 1.20898 290.835C1.20898 291.595 1.82542 292.212 2.58583 292.212H8.09322C8.85363 292.212 9.47006 291.595 9.47006 290.835C9.47006 149.652 123.922 35.2005 265.105 35.2005C406.288 35.2005 520.739 149.652 520.739 290.835C520.739 291.595 521.355 292.212 522.116 292.212H527.623C528.384 292.212 529 291.595 529 290.835C529 145.089 410.85 26.9394 265.105 26.9394Z" fill="black"/>
<circle cx="347.715" cy="193.538" r="33.0443" fill="white"/>
<circle r="33.0443" transform="matrix(-1 0 0 1 183.087 193.538)" fill="white"/>
<ellipse rx="19.2758" ry="20.1937" transform="matrix(-1 0 0 1 337.618 206.388)" fill="black"/>
<ellipse cx="193.184" cy="206.388" rx="19.2758" ry="20.1937" fill="black"/>
<path d="M10.1435 454.221V426.821C12.6334 431.35 19.1975 436.671 30.2886 436.671C46.699 436.671 57.9033 424.444 57.9033 407.121C57.9033 389.458 46.699 377.457 30.4018 377.457C17.9526 377.457 11.5016 385.156 9.91716 388.326V379.155H0.75V454.221H10.1435ZM28.9305 428.859C17.4999 428.859 9.46447 420.141 9.46447 407.121C9.46447 393.987 17.4999 385.382 28.9305 385.382C40.4744 385.382 48.2834 393.761 48.2834 407.121C48.2834 420.481 40.4744 428.859 28.9305 428.859Z" fill="black"/>
<path d="M93.5507 436.671C106 436.671 112.564 428.859 114.035 425.915V434.973H123.089V379.155H114.035V387.534C111.319 383.231 104.755 377.457 93.4376 377.457C77.1404 377.457 66.2756 389.685 66.2756 407.008C66.2756 424.783 77.2536 436.671 93.5507 436.671ZM95.1352 428.859C83.4782 428.859 75.8955 420.368 75.8955 407.008C75.8955 393.648 83.4782 385.382 95.1352 385.382C106.566 385.382 114.375 393.987 114.375 407.008C114.375 420.141 106.566 428.859 95.1352 428.859Z" fill="black"/>
<path d="M146.506 434.973V405.423C146.506 393.987 151.033 385.269 162.011 385.269C170.273 385.269 175.479 389.345 175.479 399.875V434.973H184.759V398.742C184.759 384.816 176.271 377.457 164.274 377.457C153.749 377.457 148.09 383.911 146.28 387.42V379.155H137.112V434.973H146.506Z" fill="black"/>
<path d="M222.824 436.671C235.273 436.671 241.95 428.746 243.422 425.802V434.973H252.589V355.152H243.195V387.42C240.479 383.231 234.141 377.457 222.824 377.457C206.64 377.457 195.436 389.685 195.436 407.008C195.436 424.783 206.64 436.671 222.824 436.671ZM224.408 428.859C212.864 428.859 205.055 420.368 205.055 407.008C205.055 393.648 212.864 385.382 224.408 385.382C235.839 385.382 243.874 393.987 243.874 407.008C243.874 420.141 235.839 428.859 224.408 428.859Z" fill="black"/>
<path d="M290.842 436.671C303.291 436.671 309.855 428.859 311.327 425.915V434.973H320.381V379.155H311.327V387.534C308.61 383.231 302.046 377.457 290.729 377.457C274.432 377.457 263.567 389.685 263.567 407.008C263.567 424.783 274.545 436.671 290.842 436.671ZM292.426 428.859C280.769 428.859 273.187 420.368 273.187 407.008C273.187 393.648 280.769 385.382 292.426 385.382C303.857 385.382 311.666 393.987 311.666 407.008C311.666 420.141 303.857 428.859 292.426 428.859Z" fill="black"/>
<path d="M352.172 434.973V400.667C352.172 394.214 354.549 389.458 361.226 389.458C367.338 389.458 370.054 392.968 370.054 399.195V434.973H387.03V400.667C387.03 393.648 389.859 389.458 396.31 389.458C402.309 389.458 404.912 392.968 404.912 399.195V434.973H423.246V397.497C423.246 383.231 414.758 376.551 402.648 376.551C391.444 376.551 386.011 382.892 384.087 386.175C382.05 381.986 377.523 376.551 367.79 376.551C358.057 376.551 353.643 382.099 351.719 385.156V378.25H333.838V434.973H352.172Z" fill="black"/>
<path d="M443.751 370.777C449.976 370.777 453.937 366.248 453.937 361.04C453.937 355.832 449.976 351.416 443.751 351.416C437.413 351.416 433.678 355.832 433.678 361.04C433.678 366.248 437.413 370.777 443.751 370.777ZM452.918 434.973V378.25H434.471V434.973H452.918Z" fill="black"/>
<path d="M489.37 436.671C501.706 436.671 508.157 429.086 509.628 426.821V434.973H527.623V378.25H509.628V385.382C507.365 382.212 500.461 376.551 489.257 376.551C473.186 376.551 462.095 388.666 462.095 406.555C462.095 424.783 473.299 436.671 489.37 436.671ZM495.255 423.425C486.314 423.425 480.769 416.971 480.769 406.442C480.769 396.025 486.314 389.572 495.255 389.572C504.083 389.572 509.968 396.138 509.968 406.442C509.968 416.971 504.083 423.425 495.255 423.425Z" fill="black"/>
</svg>
