<svg width="330" height="173" viewBox="0 0 330 173" fill="none" xmlns="http://www.w3.org/2000/svg">
<path d="M280.419 26.9713C273.541 37.2104 256.722 42.2675 250.032 37.7723C243.342 33.2771 245.968 18.1682 250.032 10.6761C257.848 -3.87088 270.165 -0.499468 275.854 3.24655C281.482 6.99256 287.296 16.7322 280.419 26.9713Z" fill="black"/>
<path d="M49.4563 26.9713C56.3339 37.2104 73.1527 42.2676 79.8428 37.7723C86.5328 33.2771 83.9068 18.1682 79.8428 10.6762C72.0273 -3.93329 59.7102 -0.499446 54.0205 3.24657C48.3934 6.99258 42.5787 16.7322 49.4563 26.9713Z" fill="black"/>
<path d="M195.199 160.954C199.201 164.762 199.201 174.439 195.199 177.936C191.072 181.557 180.193 188.237 168.564 188.237C156.935 188.237 144.555 181.557 140.303 177.936C136.177 174.377 136.864 164.512 141.429 160.954C148.306 155.584 161.186 160.954 168.501 160.954C175.879 160.954 189.572 155.584 195.199 160.954Z" fill="black"/>
<path d="M275.229 149.466C311.931 106.2 255.534 43.3289 209.579 55.9405C199.201 58.8124 192.198 68.1151 188.571 78.2293C153.371 174.439 252.533 176.25 275.229 149.466Z" fill="black"/>
<path d="M55.1459 149.466C18.4445 106.2 74.8409 43.3289 120.796 55.9405C131.175 58.8124 138.177 68.1151 141.804 78.2293C177.005 174.439 77.842 176.25 55.1459 149.466Z" fill="black"/>
<path fill-rule="evenodd" clip-rule="evenodd" d="M165 9.8645C73.903 9.8645 0 83.661 0 174.627C0 175.126 0.375142 175.501 0.875332 175.501H4.31413C4.81432 175.501 5.18947 175.126 5.18947 174.627C5.18947 86.4705 76.7791 15.0465 165 15.0465C253.221 15.0465 324.811 86.533 324.811 174.627C324.811 175.126 325.186 175.501 325.686 175.501H329.125C329.625 175.501 330 175.126 330 174.627C330 83.661 256.097 9.8645 165 9.8645Z" fill="black"/>
<path d="M216.645 134.482C228.04 134.482 237.277 125.258 237.277 113.879C237.277 102.5 228.04 93.2758 216.645 93.2758C205.249 93.2758 196.012 102.5 196.012 113.879C196.012 125.258 205.249 134.482 216.645 134.482Z" fill="white"/>
<path d="M113.73 134.482C125.126 134.482 134.363 125.258 134.363 113.879C134.363 102.5 125.126 93.2758 113.73 93.2758C102.335 93.2758 93.0977 102.5 93.0977 113.879C93.0977 125.258 102.335 134.482 113.73 134.482Z" fill="white"/>
<path d="M210.955 126.428C217.619 126.428 223.022 120.782 223.022 113.816C223.022 106.851 217.619 101.205 210.955 101.205C204.291 101.205 198.888 106.851 198.888 113.816C198.888 120.782 204.291 126.428 210.955 126.428Z" fill="black"/>
<path d="M108.166 126.428C114.83 126.428 120.233 120.782 120.233 113.816C120.233 106.851 114.83 101.205 108.166 101.205C101.501 101.205 96.0989 106.851 96.0989 113.816C96.0989 120.782 101.501 126.428 108.166 126.428Z" fill="black"/>
</svg>
