<svg width="94" height="50" viewBox="0 0 94 50" fill="none" xmlns="http://www.w3.org/2000/svg">
<path d="M0.373783 0.499992C0.373784 -2.97374 22.0068 -7.00001 45.3738 -7C68.7408 -7 93.0956 -3.3578 93.0956 0.671722C93.0955 27.9057 68.7408 46.4976 45.3738 46.4976C22.0068 46.4976 0.373781 23.4501 0.373783 0.499992Z" fill="#F4F4F4"/>
<g clip-path="url(#clip0)">
<path d="M14.0291 42.3574C15.9751 39.4561 20.734 38.0231 22.627 39.2968C24.5199 40.5706 23.7769 44.8519 22.627 46.9748C20.4156 51.0968 16.9304 50.1415 15.3205 49.08C13.7283 48.0186 12.083 45.2587 14.0291 42.3574Z" fill="#070707"/>
<path d="M79.3801 42.3574C77.4341 39.4561 72.6752 38.0231 70.7822 39.2969C68.8893 40.5706 69.6323 44.8519 70.7822 46.9748C72.9936 51.1146 76.4788 50.1415 78.0886 49.0801C79.6808 48.0186 81.3261 45.2588 79.3801 42.3574Z" fill="#070707"/>
<path d="M38.1421 4.39226C37.0098 3.3131 37.0098 0.570972 38.1421 -0.419731C39.3097 -1.44582 42.3879 -3.33877 45.6785 -3.33876C48.969 -3.33876 52.4719 -1.44581 53.6749 -0.419729C54.8425 0.588665 54.6479 3.38386 53.3564 4.39226C51.4104 5.91369 47.766 4.39226 45.6962 4.39226C43.6086 4.39226 39.7343 5.91369 38.1421 4.39226Z" fill="#070707"/>
<path fill-rule="evenodd" clip-rule="evenodd" d="M46.6869 47.2048C72.4629 47.2048 93.3738 26.2939 93.3738 0.51791C93.3738 0.376381 93.2676 0.270233 93.1261 0.270233L92.1531 0.270233C92.0116 0.270233 91.9054 0.376381 91.9054 0.51791C91.9054 25.4978 71.6491 45.7364 46.6869 45.7364C21.7247 45.7364 1.46836 25.4801 1.46836 0.517902C1.46836 0.376373 1.36222 0.270225 1.22068 0.270225L0.247677 0.270225C0.106144 0.270225 4.09387e-06 0.376373 4.0815e-06 0.517902C1.82809e-06 26.2939 20.9109 47.2048 46.6869 47.2048Z" fill="#070707"/>
<path d="M34.0731 34.1487C37.0099 33.3349 38.9913 30.699 40.0174 27.833C49.9598 0.570962 21.9016 0.0579206 15.4798 7.64742C5.11278 19.9074 21.0702 37.7223 34.0731 34.1487Z" fill="#070707"/>
<path d="M53.2503 27.833C54.2941 30.6813 56.2755 33.3349 59.1945 34.1487C72.1975 37.7223 88.1549 19.9074 77.7702 7.64742C71.3483 0.0579215 43.2902 0.570958 53.2503 27.833Z" fill="#070707"/>
<path d="M36.7091 16.033C36.886 16.033 37.0629 16.0861 37.2221 16.1922C37.6114 16.4753 37.7175 17.0237 37.4344 17.4306C37.346 17.5545 35.223 20.4912 31.9502 20.6504C29.8272 20.7566 27.8105 19.6951 25.8998 17.5014C25.5814 17.1299 25.6168 16.5814 25.9883 16.2453C26.3598 15.9269 26.9082 15.9623 27.2443 16.3338C28.7835 18.1029 30.3403 18.9521 31.8794 18.8813C34.3031 18.7575 35.9838 16.4399 36.0015 16.4045C36.1607 16.1746 36.4437 16.033 36.7091 16.033Z" fill="white"/>
<path d="M66.271 16.033C66.4479 16.033 66.6248 16.0861 66.784 16.1922C67.1732 16.4753 67.2794 17.0237 66.9963 17.4306C66.9078 17.5545 64.7849 20.4912 61.5121 20.6504C59.4068 20.7566 57.3723 19.6951 55.4617 17.5014C55.1433 17.1299 55.1786 16.5814 55.5501 16.2453C55.9217 15.9269 56.4701 15.9623 56.8062 16.3338C58.3453 18.1029 59.9022 18.9521 61.4413 18.8813C63.865 18.7575 65.5456 16.4399 65.5633 16.4045C65.7225 16.1746 66.0056 16.033 66.271 16.033Z" fill="white"/>
</g>
<defs>
<clipPath id="clip0">
<rect width="93.3738" height="53.3564" fill="white" transform="translate(93.3738 50) rotate(-180)"/>
</clipPath>
</defs>
</svg>
