<svg width="333" height="175" viewBox="0 0 333 175" fill="none" xmlns="http://www.w3.org/2000/svg">
<path d="M282.951 27.2149C276.011 37.5464 259.04 42.6492 252.29 38.1134C245.539 33.5776 248.189 18.3322 252.29 10.7725C260.176 -3.90584 272.604 -0.50398 278.345 3.27586C284.023 7.0557 289.89 16.8833 282.951 27.2149Z" fill="black"/>
<path d="M49.9027 27.2149C56.8424 37.5465 73.8132 42.6493 80.5636 38.1135C87.314 33.5777 84.6643 18.3323 80.5636 10.7726C72.6776 -3.96875 60.2492 -0.503897 54.5082 3.27594C48.8302 7.05578 42.963 16.8834 49.9027 27.2149Z" fill="black"/>
<path d="M196.962 162.407C200.999 166.25 200.999 176.015 196.962 179.542C192.798 183.196 181.82 189.937 170.086 189.937C158.352 189.937 145.86 183.196 141.57 179.542C137.406 175.952 138.1 165.998 142.706 162.407C149.645 156.989 162.642 162.407 170.023 162.407C177.467 162.407 191.284 156.989 196.962 162.407Z" fill="black"/>
<path d="M277.714 150.816C314.747 107.158 257.842 43.7201 211.472 56.4456C200.999 59.3434 193.933 68.73 190.274 78.9356C154.755 176.015 254.813 177.841 277.714 150.816Z" fill="black"/>
<path d="M55.6439 150.816C18.6111 107.158 75.5167 43.7201 121.887 56.4456C132.359 59.3434 139.425 68.73 143.084 78.9356C178.603 176.015 78.545 177.841 55.6439 150.816Z" fill="black"/>
<path fill-rule="evenodd" clip-rule="evenodd" d="M166.49 9.95361C74.5703 9.95361 0 84.4165 0 176.204C0 176.708 0.37853 177.086 0.883236 177.086H4.35309C4.8578 177.086 5.23633 176.708 5.23633 176.204C5.23633 87.2514 77.4724 15.1824 166.49 15.1824C255.507 15.1824 327.743 87.3144 327.743 176.204C327.743 176.708 328.122 177.086 328.627 177.086H332.097C332.601 177.086 332.98 176.708 332.98 176.204C332.98 84.4165 258.409 9.95361 166.49 9.95361Z" fill="black"/>
<path d="M218.601 135.696C230.099 135.696 239.42 126.389 239.42 114.907C239.42 103.426 230.099 94.1182 218.601 94.1182C207.103 94.1182 197.782 103.426 197.782 114.907C197.782 126.389 207.103 135.696 218.601 135.696Z" fill="white"/>
<path d="M114.758 135.696C126.256 135.696 135.577 126.389 135.577 114.907C135.577 103.426 126.256 94.1182 114.758 94.1182C103.26 94.1182 93.9385 103.426 93.9385 114.907C93.9385 126.389 103.26 135.696 114.758 135.696Z" fill="white"/>
<path d="M211.964 119.291C218.689 119.291 224.14 113.593 224.14 106.565C224.14 99.5372 218.689 93.8398 211.964 93.8398C205.239 93.8398 199.788 99.5372 199.788 106.565C199.788 113.593 205.239 119.291 211.964 119.291Z" fill="black"/>
<path d="M123.169 119.291C129.894 119.291 135.345 113.593 135.345 106.565C135.345 99.5372 129.894 93.8398 123.169 93.8398C116.445 93.8398 110.993 99.5372 110.993 106.565C110.993 113.593 116.445 119.291 123.169 119.291Z" fill="black"/>
</svg>
