<svg width="330" height="178" viewBox="0 0 330 178" fill="none" xmlns="http://www.w3.org/2000/svg">
<path d="M65.0806 27.0454C71.9394 37.2556 88.7745 42.3218 95.4774 37.8791C102.18 33.3586 99.5303 18.2381 95.4774 10.7559C87.6054 -3.89695 75.2908 -0.467568 69.6012 3.27357C63.9895 7.01472 58.1439 16.7573 65.0806 27.0454Z" fill="#070707"/>
<path d="M264.841 29.3836C257.982 39.5938 241.147 44.66 234.444 40.2174C227.742 35.6968 230.392 20.5764 234.444 13.0941C242.238 -1.48079 254.553 1.94859 260.243 5.68973C265.932 9.35294 271.7 19.0955 264.841 29.3836Z" fill="#070707"/>
<path d="M259.62 152.062C296.33 108.727 239.901 45.7511 193.994 58.3775C183.628 61.2613 176.613 70.6142 172.95 80.6685C137.799 177.003 236.939 178.873 259.62 152.062Z" fill="#070707"/>
<path d="M39.5154 152.062C2.88342 108.649 59.2344 45.6731 105.219 58.3774C115.585 61.2612 122.6 70.614 126.263 80.6683C161.414 177.003 62.2741 178.873 39.5154 152.062Z" fill="#070707"/>
<path fill-rule="evenodd" clip-rule="evenodd" d="M165 12.2366C73.8876 12.2366 0 86.1242 0 177.237C0 177.704 0.389702 178.094 0.857345 178.094H4.28673C4.75437 178.094 5.14407 177.704 5.14407 177.237C5.14407 88.93 76.6934 17.3806 165 17.3806C253.307 17.3806 324.856 88.93 324.856 177.237C324.856 177.704 325.246 178.094 325.713 178.094H329.143C329.61 178.094 330 177.704 330 177.237C330 86.1242 256.112 12.2366 165 12.2366Z" fill="#070707"/>
<path d="M201.087 137.019C212.494 137.019 221.741 127.772 221.741 116.365C221.741 104.958 212.494 95.7109 201.087 95.7109C189.68 95.7109 180.433 104.958 180.433 116.365C180.433 127.772 189.68 137.019 201.087 137.019Z" fill="#F4F4F4"/>
<path d="M98.1269 137.019C109.534 137.019 118.781 127.772 118.781 116.365C118.781 104.958 109.534 95.7109 98.1269 95.7109C86.7199 95.7109 77.4727 104.958 77.4727 116.365C77.4727 127.772 86.7199 137.019 98.1269 137.019Z" fill="#F4F4F4"/>
<path d="M191.656 128.991C198.328 128.991 203.737 123.338 203.737 116.365C203.737 109.392 198.328 103.739 191.656 103.739C184.984 103.739 179.575 109.392 179.575 116.365C179.575 123.338 184.984 128.991 191.656 128.991Z" fill="#070707"/>
<path d="M87.6052 127.199C94.2772 127.199 99.686 121.546 99.686 114.572C99.686 107.599 94.2772 101.946 87.6052 101.946C80.9332 101.946 75.5244 107.599 75.5244 114.572C75.5244 121.546 80.9332 127.199 87.6052 127.199Z" fill="#070707"/>
<path d="M179.575 163.519C183.628 167.338 183.55 177.003 179.575 180.588C175.444 184.251 164.533 190.954 152.997 190.954C141.462 190.954 128.992 184.251 124.783 180.588C120.652 177.003 121.354 167.104 125.952 163.519C132.811 158.141 145.671 163.519 153.075 163.519C160.324 163.519 173.963 158.219 179.575 163.519Z" fill="#070707"/>
</svg>
