<svg width="333" height="179" viewBox="0 0 333 179" fill="none" xmlns="http://www.w3.org/2000/svg">
<g clip-path="url(#clip0)">
<path d="M282.604 27.2549C275.692 37.5443 258.727 42.6497 251.972 38.1727C245.217 33.6171 247.887 18.3794 251.972 10.8391C259.826 -3.84884 272.236 -0.392863 277.97 3.37729C283.704 7.0689 289.516 16.887 282.604 27.2549Z" fill="#070707"/>
<path d="M49.8761 27.2552C56.7881 37.5445 73.7538 42.6499 80.5086 38.1729C87.2635 33.6173 84.593 18.3796 80.5086 10.8393C72.5756 -3.92716 60.1655 -0.471183 54.4317 3.29897C48.7765 7.06912 42.8856 16.8872 49.8761 27.2552Z" fill="#070707"/>
<path d="M196.676 162.431C200.761 166.279 200.682 176.019 196.676 179.632C192.514 183.324 181.517 190.078 169.893 190.078C158.268 190.078 145.701 183.324 141.459 179.632C137.297 176.019 138.003 166.044 142.638 162.431C149.55 157.011 162.509 162.431 169.971 162.431C177.276 162.431 191.021 157.09 196.676 162.431Z" fill="#070707"/>
<path d="M277.342 150.885C314.337 107.214 257.47 43.7495 211.207 56.4737C200.761 59.3799 193.692 68.8053 190 78.9376C154.576 176.019 254.486 177.904 277.342 150.885Z" fill="#070707"/>
<path d="M55.5311 150.885C18.615 107.135 75.403 43.6709 121.744 56.4737C132.191 59.3799 139.26 68.8053 142.952 78.9376C178.375 176.019 78.4662 177.904 55.5311 150.885Z" fill="#070707"/>
<path fill-rule="evenodd" clip-rule="evenodd" d="M166.279 9.9751C74.4605 9.9751 0 84.4356 0 176.255C0 176.726 0.392724 177.119 0.863993 177.119H4.31997C4.79124 177.119 5.18396 176.726 5.18396 176.255C5.18396 87.2632 77.2881 15.1591 166.279 15.1591C255.271 15.1591 327.375 87.2632 327.375 176.255C327.375 176.726 327.768 177.119 328.239 177.119H331.695C332.166 177.119 332.559 176.726 332.559 176.255C332.559 84.4356 258.098 9.9751 166.279 9.9751Z" fill="#070707"/>
<path d="M218.355 135.725C229.85 135.725 239.169 126.407 239.169 114.911C239.169 103.416 229.85 94.0967 218.355 94.0967C206.859 94.0967 197.541 103.416 197.541 114.911C197.541 126.407 206.859 135.725 218.355 135.725Z" fill="#F4F4F4"/>
<path d="M114.597 135.725C126.093 135.725 135.411 126.407 135.411 114.911C135.411 103.416 126.093 94.0967 114.597 94.0967C103.102 94.0967 93.7827 103.416 93.7827 114.911C93.7827 126.407 103.102 135.725 114.597 135.725Z" fill="#F4F4F4"/>
<path d="M225.56 128.185C232.284 128.185 237.735 122.489 237.735 115.461C237.735 108.434 232.284 102.737 225.56 102.737C218.836 102.737 213.386 108.434 213.386 115.461C213.386 122.489 218.836 128.185 225.56 128.185Z" fill="#070707"/>
<path d="M121.666 127.635C128.39 127.635 133.841 121.938 133.841 114.911C133.841 107.884 128.39 102.187 121.666 102.187C114.942 102.187 109.492 107.884 109.492 114.911C109.492 121.938 114.942 127.635 121.666 127.635Z" fill="#070707"/>
</g>
<defs>
<clipPath id="clip0">
<rect width="332.559" height="190" fill="white"/>
</clipPath>
</defs>
</svg>
