<svg width="330" height="177" viewBox="0 0 330 177" fill="none" xmlns="http://www.w3.org/2000/svg">
<g clip-path="url(#clip0)">
<path d="M277.144 26.2637C270.432 36.1825 254.072 41.0721 247.64 36.7413C241.208 32.4106 243.725 17.742 247.64 10.3378C255.191 -3.772 267.216 -0.558872 272.669 3.07336C278.123 6.84529 283.856 16.345 277.144 26.2637Z" fill="black"/>
<path d="M52.7161 26.2637C59.428 36.1825 75.7882 41.0721 82.2204 36.7413C88.6526 32.4106 86.1356 17.742 82.2204 10.3378C74.6695 -3.772 62.6441 -0.558872 57.1907 3.07336C51.5975 6.84529 46.0043 16.345 52.7161 26.2637Z" fill="black"/>
<path d="M194.364 156.465C198.28 160.237 198.28 169.597 194.364 172.95C190.309 176.443 179.822 183.008 168.496 183.008C157.17 183.008 145.144 176.582 141.089 172.95C137.034 169.457 137.733 159.818 142.208 156.465C148.919 151.296 161.364 156.465 168.496 156.465C175.627 156.465 188.911 151.296 194.364 156.465Z" fill="black"/>
<path d="M272.11 145.289C307.767 103.239 252.953 42.0501 208.347 54.3438C198.28 57.1378 191.428 66.2184 187.932 75.9974C153.674 169.597 250.017 171.413 272.11 145.289Z" fill="black"/>
<path d="M58.1695 145.289C22.5127 103.239 77.3262 42.0501 121.932 54.3438C132 57.1378 138.852 66.2184 142.347 75.9974C176.606 169.597 80.2627 171.413 58.1695 145.289Z" fill="black"/>
<path fill-rule="evenodd" clip-rule="evenodd" d="M165 9.6394C76.3474 9.6394 4.61438 81.3061 4.61438 169.877C4.61438 170.296 5.03387 170.715 5.45336 170.715H8.8093C9.22879 170.715 9.64828 170.296 9.64828 169.877C9.64828 84.1001 79.144 14.6686 165 14.6686C250.856 14.6686 320.352 84.1001 320.352 169.877C320.352 170.296 320.771 170.715 321.191 170.715H324.547C324.966 170.715 325.386 170.296 325.386 169.877C325.386 81.3061 253.513 9.6394 165 9.6394Z" fill="black"/>
<path d="M215.199 130.9C226.32 130.9 235.335 121.893 235.335 110.783C235.335 99.6727 226.32 90.666 215.199 90.666C204.079 90.666 195.064 99.6727 195.064 110.783C195.064 121.893 204.079 130.9 215.199 130.9Z" fill="#F4F4F4"/>
<path d="M115.081 130.9C126.201 130.9 135.216 121.893 135.216 110.783C135.216 99.6727 126.201 90.666 115.081 90.666C103.96 90.666 94.9449 99.6727 94.9449 110.783C94.9449 121.893 103.96 130.9 115.081 130.9Z" fill="#F4F4F4"/>
<path d="M209.047 114.415C215.534 114.415 220.792 108.911 220.792 102.122C220.792 95.332 215.534 89.8279 209.047 89.8279C202.56 89.8279 197.301 95.332 197.301 102.122C197.301 108.911 202.56 114.415 209.047 114.415Z" fill="black"/>
<path d="M109.767 114.415C116.254 114.415 121.513 108.911 121.513 102.122C121.513 95.332 116.254 89.8279 109.767 89.8279C103.28 89.8279 98.0212 95.332 98.0212 102.122C98.0212 108.911 103.28 114.415 109.767 114.415Z" fill="black"/>
<path d="M166.258 134.812C177.585 134.672 190.03 135.79 202.195 137.606C218.415 139.981 234.636 142.495 250.996 145.01C263.161 146.826 275.466 148.642 287.631 150.458C298.398 151.995 309.025 153.671 319.792 155.348C321.191 155.627 321.61 156.046 321.75 156.745C322.449 161.634 323.148 166.524 323.847 171.413C324.966 180.215 326.225 189.016 327.064 197.817C328.042 208.155 322.729 217.235 311.682 225.338C299.797 234 287.212 242.102 273.508 249.786C257.708 258.587 240.928 266.41 221.631 272.278C207.229 276.748 192.127 279.822 176.047 280.799C165.419 281.498 154.792 281.219 144.305 279.961C122.072 277.307 102.636 271.3 84.3178 263.616C66.6992 256.212 51.0381 247.411 36.6356 238.051C28.8051 232.882 21.2542 227.573 14.1229 222.125C8.80932 218.074 5.45339 213.184 3.77542 208.015C1.67797 201.868 2.51695 195.582 3.2161 189.435C3.77542 184.685 4.47458 179.935 5.17373 175.325C6.01271 169.178 6.99153 163.031 7.83051 156.885C7.97034 156.046 8.38983 155.627 9.92797 155.348C19.8559 153.951 29.7839 152.414 39.7119 150.877C51.7373 149.061 63.6229 147.245 75.6483 145.429C87.6737 143.613 99.6992 141.937 111.585 140.12C119.136 139.003 126.547 137.885 134.097 136.768C144.165 135.371 154.513 134.812 166.258 134.812Z" fill="#F4F4F4"/>
<path d="M66.1398 176.024C66.839 175.884 67.5381 175.884 68.2373 175.744C79.4237 174.906 90.75 174.068 101.936 173.09C126.966 170.994 151.996 169.458 177.165 170.156C188.352 170.435 199.538 171.134 210.725 171.833C220.792 172.391 230.86 173.23 240.928 174.068C248.339 174.627 255.61 175.185 263.021 175.884C263.441 175.884 263.72 176.024 264.14 176.163C260.784 176.443 257.568 176.722 254.212 177.001C243.864 177.84 233.377 178.678 223.03 179.376C214.22 179.935 205.551 180.494 196.742 181.053C183.458 181.891 170.174 182.31 156.75 181.891C145.284 181.612 133.818 181.053 122.492 180.354C111.725 179.795 100.958 178.818 90.3305 178.119C82.3602 177.56 74.3898 176.862 66.2797 176.303C66.1398 176.163 66.1398 176.024 66.1398 176.024Z" fill="black"/>
<path d="M164.301 131.179C171.013 131.179 177.725 131.319 184.436 131.878C191.428 132.437 198.42 133.275 205.271 134.393C210.445 135.231 215.479 135.929 220.653 136.768C227.085 137.745 233.377 138.723 239.809 139.701C246.661 140.819 253.513 141.797 260.504 142.775C267.076 143.753 273.648 144.87 280.22 145.848C287.352 146.966 294.343 147.944 301.475 149.061C306.648 149.899 311.822 150.598 316.996 151.436C318.674 151.716 320.352 151.995 322.03 152.274C322.309 152.274 322.589 152.554 322.589 152.693C323.568 155.907 324.686 158.98 325.525 162.193C326.085 164.428 326.225 166.803 326.504 169.038C326.784 171.553 327.203 173.928 327.483 176.443C327.903 179.237 328.182 182.031 328.602 184.825C329.021 187.898 329.441 190.972 329.86 194.045C330 194.743 330 195.582 330 196.28C330 198.934 330.28 201.589 330 204.243C329.72 207.177 329.301 210.111 327.903 212.905C327.203 214.302 326.644 215.559 325.945 216.956C325.945 217.096 325.805 217.235 325.665 217.235C324.966 218.074 324.267 218.772 323.568 219.61C320.771 223.382 317.275 226.595 313.5 229.529C297.14 241.962 279.801 252.859 261.064 262.219C245.962 269.763 230.161 275.91 213.521 280.241C205.131 282.336 196.742 284.012 188.212 285.13C177.585 286.387 166.818 286.806 156.191 286.387C136.335 285.409 117.318 281.358 98.8602 274.792C83.4788 269.484 69.0763 262.499 55.0932 254.675C43.3475 247.97 32.161 240.705 21.2543 232.882C17.8983 230.367 14.5424 227.853 11.4661 225.059C8.94917 222.544 6.85171 219.89 4.75425 217.096C3.35595 215.28 2.09747 213.463 1.53815 211.368C0.97883 209.552 0.559339 207.875 0.279678 206.059C0.139847 204.802 0.139847 203.545 0.279678 202.287C0.559339 196.42 0.97883 190.413 1.81781 184.545C2.37714 180.913 2.79663 177.281 3.35595 173.649C3.77544 170.575 4.19493 167.362 4.75425 164.289C5.31358 161.215 5.8729 158.281 6.43222 155.208C6.57205 154.37 7.13137 153.671 7.55086 152.833C7.6907 152.693 7.83053 152.554 8.11019 152.554C12.0254 151.855 15.8009 151.296 19.7161 150.598C24.8898 149.76 30.0636 149.061 35.2373 148.363C40.9704 147.524 46.5636 146.686 52.2966 145.708C58.1695 144.87 64.0424 143.892 69.7754 143.054C75.6483 142.216 81.5212 141.238 87.3941 140.4C92.5678 139.562 97.6017 138.863 102.775 138.025C108.369 137.187 113.962 136.348 119.555 135.51C123.61 134.951 127.665 134.253 131.72 133.694C136.754 132.996 141.788 132.437 146.822 132.157C152.695 131.738 158.568 131.599 164.441 131.319C164.301 131.04 164.301 131.179 164.301 131.179ZM165 281.079C169.335 280.799 173.67 280.66 178.004 280.38C185.415 279.821 192.686 278.704 199.818 277.307C211.424 274.932 222.61 271.3 233.377 267.109C247.92 261.381 261.623 254.256 274.767 246.153C279.242 243.499 283.436 240.565 287.911 237.911C298.259 231.764 307.627 224.779 316.157 216.816C318.394 214.721 319.932 212.346 320.771 209.691C321.89 206.478 322.03 203.126 322.03 199.773C322.03 194.464 321.331 189.016 320.911 183.707C320.352 178.398 319.792 172.95 319.233 167.641C318.953 165.546 318.674 163.45 317.975 161.495C316.996 158.98 315.178 157.164 312.381 156.326C311.822 156.186 311.263 155.907 310.564 155.907C306.089 155.348 301.754 154.789 297.28 154.23C292.386 153.671 287.492 153.113 282.598 152.414C277.004 151.576 271.551 150.738 265.958 149.899C257.428 148.642 248.898 147.245 240.509 145.988C230.161 144.451 219.814 142.775 209.466 141.238C201.636 139.981 193.805 138.723 185.975 138.025C179.822 137.466 173.67 137.047 167.517 137.047C161.924 137.047 156.331 137.187 150.737 137.466C146.123 137.745 141.648 138.165 137.034 138.723C131.72 139.422 126.407 140.26 121.233 141.098C116.199 141.797 111.025 142.635 105.992 143.473C100.119 144.311 94.1059 145.289 88.2331 146.127C82.5 146.966 76.6271 147.944 70.8941 148.782C65.161 149.62 59.2882 150.598 53.5551 151.436C47.6822 152.414 41.8093 153.252 35.9365 154.09C32.4407 154.649 28.9449 155.068 25.4492 155.627C23.2119 155.907 20.9746 156.186 18.7373 156.605C15.1017 157.304 12.5848 159.12 11.6059 162.473C11.3263 163.171 11.1865 163.87 11.0466 164.708C10.4873 168.619 10.0678 172.531 9.64832 176.582C9.22883 181.053 8.80934 185.663 8.25002 190.133C7.83053 194.185 7.55086 198.236 7.69069 202.287C7.69069 204.523 7.97036 206.758 8.52968 208.993C9.36866 212.625 11.4661 215.559 14.4026 218.213C23.6314 226.595 33.6992 234.139 45.0254 240.426C46.8432 241.404 48.8009 242.242 50.4788 243.359C61.3856 250.205 72.7119 256.491 84.5975 261.94C103.055 270.322 122.352 276.608 142.767 279.402C150.178 280.52 157.589 280.939 165 281.079Z" fill="black"/>
</g>
<defs>
<clipPath id="clip0">
<rect width="330" height="286.667" fill="white"/>
</clipPath>
</defs>
</svg>
