<svg width="333" height="175" viewBox="0 0 333 175" fill="none" xmlns="http://www.w3.org/2000/svg">
<g clip-path="url(#clip0)">
<path d="M282.543 27.2149C275.613 37.5464 258.667 42.6492 251.926 38.1134C245.186 33.5776 247.832 18.3322 251.926 10.7725C259.801 -3.90584 272.212 -0.50398 277.944 3.27586C283.614 7.0557 289.473 16.8833 282.543 27.2149Z" fill="#070707"/>
<path d="M49.8308 27.2149C56.7605 37.5465 73.7068 42.6493 80.4475 38.1135C87.1882 33.5777 84.5423 18.3323 80.4475 10.7726C72.5728 -3.96875 60.1623 -0.503897 54.4296 3.27594C48.7598 7.05578 42.9011 16.8834 49.8308 27.2149Z" fill="#070707"/>
<path d="M196.678 162.407C200.71 166.25 200.71 176.015 196.678 179.542C192.52 183.196 181.558 189.937 169.841 189.937C158.123 189.937 145.65 183.196 141.366 179.542C137.208 175.952 137.901 165.998 142.5 162.407C149.43 156.989 162.407 162.407 169.778 162.407C177.212 162.407 191.008 156.989 196.678 162.407Z" fill="#070707"/>
<path fill-rule="evenodd" clip-rule="evenodd" d="M166.25 9.95361C74.4629 9.95361 0 84.4165 0 176.204C0 176.708 0.377984 177.086 0.881963 177.086H4.34682C4.8508 177.086 5.22878 176.708 5.22878 176.204C5.22878 87.2514 77.3607 15.1824 166.25 15.1824C255.139 15.1824 327.271 87.3144 327.271 176.204C327.271 176.708 327.649 177.086 328.153 177.086H331.618C332.122 177.086 332.5 176.708 332.5 176.204C332.5 84.4165 258.037 9.95361 166.25 9.95361Z" fill="#070707"/>
<path d="M211.167 56.4456C200.709 59.3434 193.654 68.73 190 78.9356C154.595 176.015 254.509 177.841 277.377 150.816C314.294 107.158 257.47 43.7201 211.167 56.4456Z" fill="#070707"/>
<path d="M142.878 78.9356C139.161 68.793 132.106 59.3434 121.711 56.4456C75.4079 43.7201 18.5843 107.158 55.5638 150.816C78.4318 177.841 178.346 176.015 142.878 78.9356Z" fill="#070707"/>
<path d="M201.781 120.955C201.151 120.955 200.521 120.766 199.954 120.388C198.568 119.38 198.19 117.427 199.198 115.978C199.513 115.537 207.073 105.08 218.727 104.513C226.287 104.135 233.468 107.914 240.272 115.726C241.406 117.049 241.28 119.002 239.957 120.199C238.634 121.333 236.681 121.207 235.484 119.884C230.004 113.584 224.46 110.56 218.979 110.812C210.348 111.253 204.364 119.506 204.301 119.632C203.734 120.451 202.726 120.955 201.781 120.955Z" fill="white"/>
<path d="M96.5117 120.955C95.8818 120.955 95.2518 120.766 94.6848 120.388C93.2989 119.38 92.9209 117.427 93.9288 115.978C94.2438 115.537 101.804 105.08 113.458 104.513C120.955 104.135 128.199 107.914 135.003 115.726C136.137 117.049 136.011 119.002 134.688 120.199C133.365 121.333 131.412 121.207 130.215 119.884C124.735 113.584 119.191 110.56 113.71 110.812C105.079 111.253 99.0946 119.506 99.0316 119.632C98.4647 120.451 97.4567 120.955 96.5117 120.955Z" fill="white"/>
</g>
<defs>
<clipPath id="clip0">
<rect width="332.5" height="190" fill="white"/>
</clipPath>
</defs>
</svg>
