<svg width="37" height="37" viewBox="0 0 37 37" fill="none" xmlns="http://www.w3.org/2000/svg">
<path d="M18.2635 36.572C8.29827 36.572 0.223022 28.5056 0.223022 18.5514C0.223022 8.59713 8.29827 0.530762 18.2635 0.530762C28.2287 0.530762 36.3039 8.59713 36.3039 18.5514C36.3039 28.5056 28.2287 36.572 18.2635 36.572Z" fill="#FDBB65"/>
<path d="M10.7036 11C11.3909 10.3135 12.2499 9.97021 13.4526 9.97021C14.6553 9.97021 15.5144 10.3135 16.2017 11C16.8889 11.6865 17.2325 12.5446 17.2325 13.746C17.2325 14.9473 16.8889 15.8055 16.2017 16.492C15.5144 17.1785 14.6553 17.5217 13.4526 17.5217C12.2499 17.5217 11.3909 17.1785 10.7036 16.492C10.0164 15.8055 9.67273 14.7757 9.67273 13.746C9.67273 12.5446 10.0164 11.6865 10.7036 11ZM12.0781 12.0297C11.7345 12.373 11.5627 13.0595 11.5627 13.746C11.5627 14.4325 11.7345 15.119 12.0781 15.4622C12.4218 15.8055 12.9372 16.1487 13.4526 16.1487C13.9681 16.1487 14.4835 15.9771 14.8271 15.4622C15.1708 14.9473 15.3426 14.4325 15.3426 13.746C15.3426 12.8878 15.1708 12.373 14.8271 12.0297C14.4835 11.6865 13.9681 11.3432 13.4526 11.3432C12.9372 11.3432 12.4218 11.5148 12.0781 12.0297ZM24.7923 10.1419L14.3117 28.1625H11.9063L22.3869 10.1419H24.7923ZM20.6688 21.8123C21.3561 21.1258 22.2151 20.7826 23.4178 20.7826C24.6205 20.7826 25.4796 21.1258 26.1668 21.8123C26.8541 22.4988 27.1977 23.5286 27.1977 24.5583C27.1977 25.7597 26.8541 26.6178 26.1668 27.3043C25.4796 27.9908 24.6205 28.3341 23.4178 28.3341C22.2151 28.3341 21.3561 27.9908 20.6688 27.3043C19.9816 26.6178 19.6379 25.5881 19.6379 24.5583C19.4661 23.357 19.8097 22.4988 20.6688 21.8123ZM21.8715 22.8421C21.5279 23.1853 21.3561 23.8718 21.3561 24.5583C21.3561 25.4165 21.5279 25.9313 21.8715 26.2746C22.2151 26.6178 22.7306 26.9611 23.246 26.9611C23.7615 26.9611 24.2769 26.7895 24.6205 26.2746C24.9641 25.9313 25.136 25.2448 25.136 24.5583C25.136 23.7002 24.9641 23.1853 24.6205 22.8421C24.2769 22.4988 23.7615 22.1556 23.246 22.1556C22.7306 22.1556 22.2151 22.4988 21.8715 22.8421Z" fill="white"/>
</svg>
