<svg width="49" height="92" viewBox="0 0 49 92" fill="none" xmlns="http://www.w3.org/2000/svg">
<g clip-path="url(#clip0)">
<path d="M48.6271 0.706388C52.0119 0.706388 60 22.5277 60 45.2669C60 68.006 52.5534 91.7064 48.6271 91.7064C22.0903 91.7063 3 68.006 3 45.2669C3 22.5277 26.2645 0.706389 48.6271 0.706388Z" fill="#F4F4F4"/>
<path d="M7.49527 13.7785C10.3407 15.6898 11.7461 20.3638 10.4969 22.2229C9.24764 24.0821 5.0489 23.3523 2.96688 22.2229C-1.07571 20.051 -0.138805 16.6281 0.902206 15.0469C1.94322 13.4832 4.64985 11.8673 7.49527 13.7785Z" fill="black"/>
<path d="M7.49528 77.9626C10.3407 76.0513 11.7461 71.3774 10.4969 69.5182C9.24765 67.6591 5.04891 68.3888 2.96689 69.5182C-1.09305 71.6901 -0.138795 75.1131 0.902216 76.6942C1.94323 78.258 4.64985 79.8739 7.49528 77.9626Z" fill="black"/>
<path d="M44.7288 37.461C45.7871 36.3489 48.4764 36.3489 49.448 37.461C50.4543 38.6077 52.3108 41.631 52.3108 44.8628C52.3108 48.0946 50.4543 51.5349 49.448 52.7164C48.4591 53.8632 45.7177 53.672 44.7288 52.4036C43.2366 50.4924 44.7288 46.9131 44.7288 44.8802C44.7288 42.8299 43.2366 39.0247 44.7288 37.461Z" fill="black"/>
<path d="M41.5363 15.2207C29.5127 5.02143 12.041 20.6939 15.5458 33.4647C16.3439 36.3489 18.9291 38.295 21.7398 39.3027C48.4764 49.085 48.9796 21.5279 41.5363 15.2207Z" fill="black"/>
<path d="M41.5363 76.3814C29.5127 86.5807 12.041 70.9083 15.5458 58.1375C16.3439 55.2532 18.9291 53.3072 21.7398 52.2994C48.4764 42.5171 48.9796 70.0742 41.5363 76.3814Z" fill="black"/>
<path fill-rule="evenodd" clip-rule="evenodd" d="M2.74133 45.8532C2.74133 71.1689 23.2492 91.7064 48.5285 91.7064C48.6673 91.7064 48.7714 91.6021 48.7714 91.4631L48.7714 90.5075C48.7714 90.3685 48.6673 90.2642 48.5285 90.2642C24.03 90.2642 4.1814 70.3696 4.1814 45.8532C4.18139 21.3368 24.0473 1.44215 48.5284 1.44214C48.6673 1.44214 48.7714 1.33789 48.7714 1.19888L48.7714 0.243246C48.7714 0.104246 48.6673 -2.00749e-06 48.5284 -2.00142e-06C23.2492 -8.96429e-07 2.74133 20.5375 2.74133 45.8532Z" fill="black"/>
<path d="M37.3723 31.5013C37.3723 28.3346 34.8089 25.7674 31.6467 25.7674C28.4846 25.7674 25.9212 28.3346 25.9212 31.5013C25.9212 34.668 28.4846 37.2351 31.6467 37.2351C34.8089 37.2351 37.3723 34.668 37.3723 31.5013Z" fill="white"/>
<path d="M37.3723 60.1009C37.3723 56.9342 34.8089 54.3671 31.6467 54.3671C28.4846 54.3671 25.9212 56.9342 25.9212 60.1009C25.9212 63.2676 28.4846 65.8347 31.6467 65.8347C34.8089 65.8347 37.3723 63.2676 37.3723 60.1009Z" fill="white"/>
<path d="M32.854 33.3291C32.854 31.4771 31.2849 29.9757 29.3493 29.9757C27.4137 29.9757 25.8445 31.4771 25.8445 33.3291C25.8445 35.1812 27.4137 36.6826 29.3493 36.6826C31.2849 36.6826 32.854 35.1812 32.854 33.3291Z" fill="black"/>
<path d="M32.854 57.7842C32.854 55.9321 31.2849 54.4308 29.3493 54.4308C27.4137 54.4308 25.8445 55.9321 25.8445 57.7842C25.8445 59.6362 27.4137 61.1376 29.3493 61.1376C31.2849 61.1376 32.854 59.6362 32.854 57.7842Z" fill="black"/>
</g>
<defs>
<clipPath id="clip0">
<rect width="91.7064" height="52.3281" fill="white" transform="translate(0 91.7064) rotate(-90)"/>
</clipPath>
</defs>
</svg>
