<svg width="51" height="94" viewBox="0 0 51 94" fill="none" xmlns="http://www.w3.org/2000/svg">
<path d="M0.671718 93.6517C-2.80201 93.6517 -11 71.2278 -11 47.8608C-11 24.4938 -3.3578 0.138932 0.671722 0.138944C27.9057 0.139029 47.4976 24.4938 47.4976 47.8608C47.4976 71.2278 23.6218 93.6517 0.671718 93.6517Z" fill="#F4F4F4"/>
<g clip-path="url(#clip0)">
<path d="M42.8607 79.7752C39.9561 77.8241 38.515 73.0349 39.7788 71.1281C41.0647 69.2213 45.3661 69.9752 47.4947 71.1281C51.6408 73.3453 50.6653 76.8485 49.601 78.4671C48.5589 80.0856 45.7874 81.7264 42.8607 79.7752Z" fill="#070707"/>
<path d="M42.8606 14.0793C39.9561 16.0305 38.5149 20.8196 39.7787 22.7264C41.0647 24.6332 45.3661 23.8794 47.4946 22.7264C51.663 20.4871 50.6874 16.9839 49.6231 15.3653C48.5589 13.7689 45.7874 12.106 42.8606 14.0793Z" fill="#070707"/>
<path d="M4.70244 55.519C3.61601 56.6719 0.866666 56.6498 -0.153252 55.519C-1.19534 54.3439 -3.10214 51.2398 -3.10214 47.9583C-3.10214 44.6768 -1.19534 41.1293 -0.153251 39.932C0.866666 38.7569 3.68252 38.9564 4.70244 40.2646C6.23232 42.2157 4.70244 45.8741 4.70244 47.9805C4.70244 50.0425 6.21014 53.9226 4.70244 55.519Z" fill="#070707"/>
<path d="M7.96174 78.2897C20.2894 88.7328 38.2045 72.6802 34.6126 59.6208C33.7923 56.6719 31.1316 54.6764 28.2714 53.6343C0.866669 43.6347 0.334533 71.8376 7.96174 78.2897Z" fill="#070707"/>
<path d="M7.96174 15.6756C20.3116 5.25474 38.2267 21.2852 34.6126 34.3667C33.7923 37.3156 31.1316 39.3111 28.2714 40.3532C0.866667 50.3528 0.334537 22.1499 7.96174 15.6756Z" fill="#070707"/>
<path fill-rule="evenodd" clip-rule="evenodd" d="M47.7385 46.9384C47.7385 21.0192 26.7194 -9.18777e-07 0.800159 -2.05174e-06C0.667126 -2.05756e-06 0.556267 0.110859 0.556267 0.243891L0.556267 1.21946C0.556267 1.3525 0.667126 1.46336 0.800159 1.46336C25.9212 1.46336 46.2752 21.8174 46.2752 46.9384C46.2752 72.0594 25.9212 92.4134 0.800155 92.4134C0.667122 92.4134 0.556263 92.5242 0.556263 92.6573L0.556263 93.6328C0.556263 93.7659 0.667122 93.8767 0.800155 93.8767C26.7194 93.8767 47.7385 72.8576 47.7385 46.9384Z" fill="#070707"/>
<path d="M12.241 61.6385C12.241 64.8835 14.8716 67.5141 18.1166 67.5141C21.3616 67.5141 23.9922 64.8835 23.9922 61.6385C23.9922 58.3935 21.3616 55.7629 18.1166 55.7629C14.8716 55.7629 12.241 58.3935 12.241 61.6385Z" fill="#F4F4F4"/>
<path d="M12.241 32.3491C12.241 35.5941 14.8716 38.2247 18.1166 38.2247C21.3616 38.2247 23.9922 35.5941 23.9922 32.3491C23.9922 29.1041 21.3616 26.4735 18.1166 26.4735C14.8716 26.4735 12.241 29.1041 12.241 32.3491Z" fill="#F4F4F4"/>
<path d="M14.3695 63.6725C14.3695 65.5705 15.9776 67.1091 17.9613 67.1091C19.9451 67.1091 21.5532 65.5705 21.5532 63.6725C21.5532 61.7744 19.9451 60.2358 17.9613 60.2358C15.9776 60.2358 14.3695 61.7744 14.3695 63.6725Z" fill="#070707"/>
<path d="M14.5247 34.3446C14.5247 36.2426 16.1329 37.7813 18.1166 37.7813C20.1004 37.7813 21.7085 36.2426 21.7085 34.3446C21.7085 32.4466 20.1004 30.9079 18.1166 30.9079C16.1329 30.9079 14.5247 32.4466 14.5247 34.3446Z" fill="#070707"/>
</g>
<defs>
<clipPath id="clip0">
<rect width="93.8767" height="53.6343" fill="white" transform="translate(50.5544) rotate(90)"/>
</clipPath>
</defs>
</svg>
