<svg width="92" height="61" viewBox="0 0 92 61" fill="none" xmlns="http://www.w3.org/2000/svg">
<path d="M91.7064 48.8817C91.7064 52.2812 69.7157 60.3039 46.8 60.3039C23.8844 60.3039 -1.20574e-05 52.8251 0 48.8817C8.14917e-05 22.2299 23.8844 3.05688 46.8 3.05688C69.7157 3.05688 91.7064 26.4222 91.7064 48.8817Z" fill="#F4F4F4"/>
<g clip-path="url(#clip0)">
<path d="M18.0857 7.51589C19.9918 10.3533 24.6702 11.7612 26.5329 10.5266C28.3957 9.27031 27.6592 5.06836 26.5329 2.98905C24.3453 -1.08294 20.9231 -0.12992 19.342 0.909737C17.7825 1.94939 16.158 4.65683 18.0857 7.51589Z" fill="#070707"/>
<path d="M73.599 8.16564C71.693 11.003 67.0145 12.4109 65.1518 11.1763C63.2891 9.92006 64.0255 5.71812 65.1518 3.6388C67.3178 -0.411527 70.74 0.541492 72.3211 1.58115C73.9022 2.59915 75.505 5.30659 73.599 8.16564Z" fill="#070707"/>
<path d="M72.1478 42.2577C82.3495 30.215 66.668 12.7141 53.9105 16.223C51.0298 17.0244 49.0805 19.6235 48.0625 22.4176C38.294 49.1888 65.8449 49.7086 72.1478 42.2577Z" fill="#070707"/>
<path d="M10.9814 42.2577C0.801387 30.1934 16.4612 12.6925 29.2403 16.223C32.1211 17.0244 34.0704 19.6235 35.0884 22.4176C44.8568 49.1888 17.3059 49.7086 10.9814 42.2577Z" fill="#070707"/>
<path fill-rule="evenodd" clip-rule="evenodd" d="M45.8532 3.40056C20.5332 3.40056 0 23.9338 0 49.2538C0 49.3837 0.108298 49.492 0.238255 49.492H1.19127C1.32123 49.492 1.42953 49.3837 1.42953 49.2538C1.42953 24.7135 21.313 4.83009 45.8532 4.83009C70.3934 4.83009 90.2769 24.7135 90.2769 49.2538C90.2769 49.3837 90.3852 49.492 90.5151 49.492H91.4681C91.5981 49.492 91.7064 49.3837 91.7064 49.2538C91.7064 23.9338 71.1732 3.40056 45.8532 3.40056Z" fill="#070707"/>
<path d="M55.8816 38.0774C59.0515 38.0774 61.6213 35.5076 61.6213 32.3376C61.6213 29.1677 59.0515 26.5979 55.8816 26.5979C52.7116 26.5979 50.1418 29.1677 50.1418 32.3376C50.1418 35.5076 52.7116 38.0774 55.8816 38.0774Z" fill="#F4F4F4"/>
<path d="M27.2693 38.0774C30.4393 38.0774 33.0091 35.5076 33.0091 32.3376C33.0091 29.1677 30.4393 26.5979 27.2693 26.5979C24.0993 26.5979 21.5295 29.1677 21.5295 32.3376C21.5295 35.5076 24.0993 38.0774 27.2693 38.0774Z" fill="#F4F4F4"/>
<path d="M53.2608 35.8465C55.1149 35.8465 56.618 34.2755 56.618 32.3376C56.618 30.3998 55.1149 28.8288 53.2608 28.8288C51.4066 28.8288 49.9036 30.3998 49.9036 32.3376C49.9036 34.2755 51.4066 35.8465 53.2608 35.8465Z" fill="#070707"/>
<path d="M24.3453 35.3483C26.1995 35.3483 27.7025 33.7774 27.7025 31.8395C27.7025 29.9016 26.1995 28.3306 24.3453 28.3306C22.4912 28.3306 20.9881 29.9016 20.9881 31.8395C20.9881 33.7774 22.4912 35.3483 24.3453 35.3483Z" fill="#070707"/>
<path d="M49.9035 45.4417C51.0298 46.503 51.0082 49.1888 49.9035 50.1851C48.7556 51.2031 45.7233 53.0658 42.5177 53.0658C39.312 53.0658 35.8465 51.2031 34.6769 50.1851C33.529 49.1888 33.7239 46.438 35.0018 45.4417C36.9078 43.9472 40.4817 45.4417 42.5393 45.4417C44.5536 45.4417 48.3441 43.9688 49.9035 45.4417Z" fill="#070707"/>
</g>
<defs>
<clipPath id="clip0">
<rect width="91.7064" height="60.0185" fill="white"/>
</clipPath>
</defs>
</svg>
